<svg width="427" height="163" viewBox="0 0 427 163" fill="none" xmlns="http://www.w3.org/2000/svg">
<ellipse cx="195.42" cy="69.6451" rx="193.42" ry="68.6451" stroke="#FFFAFA" stroke-width="2"/>
<path d="M75.8787 34.6029C71.5552 37.3335 70.7967 42.6431 70.7967 47.9527C71.5552 57.0548 79.8988 63.1229 88.0149 63.8814C88.5458 64.0331 89.0768 63.8814 89.6077 64.564C90.8214 65.9293 91.8074 67.143 92.4901 68.2049C94.2346 70.8597 95.069 73.211 95.069 75.1832C95.069 77.1553 94.6139 78.9757 93.7795 80.7203C92.9452 82.4649 91.8074 83.9819 90.2904 85.4231C88.7734 86.7884 86.8012 87.9261 84.4499 88.9122C82.0985 89.8224 79.5196 90.3534 76.6372 90.5051C77.3957 89.3673 77.8508 88.1537 77.8508 86.9401C77.8508 85.6506 77.6233 84.437 77.0923 83.1475C76.5614 81.8581 75.8029 80.4169 74.7409 78.9757C72.9964 76.5485 71.1001 74.1971 68.9763 71.9216C66.8524 69.646 65.4113 67.9773 64.5769 66.9913C63.7425 66.0052 62.8323 64.7157 61.7704 63.2746C59.7224 60.3922 58.7364 57.434 58.7364 54.4759C58.7364 51.5177 59.6466 48.787 61.467 46.2839C62.8323 44.3877 64.5011 42.7948 66.6249 41.5053C67.3075 41.0502 68.0661 40.671 68.8246 40.2917C70.9484 39.7608 72.4654 37.4852 73.9824 36.3475C74.5134 35.589 75.196 35.058 75.8787 34.6029ZM91.9591 62.5161C94.3863 52.4279 84.5257 41.0502 76.1821 35.7407C82.2502 28.9141 92.8693 30.4311 98.9374 36.4992C105.764 43.3258 102.73 56.9789 94.4622 61.6058C93.4003 62.061 92.5659 62.3644 91.9591 62.5161ZM73.4515 87.0918C73.1481 88.7605 72.693 89.8983 72.0862 90.5051C69.5072 90.5051 66.3973 90.2017 62.9082 89.519C59.3432 88.8363 56.7643 88.002 55.1714 86.9401C55.1714 86.4091 55.1714 85.6506 55.1714 84.5887C55.1714 79.7342 55.7782 75.1832 56.916 70.8597C56.9918 70.4804 57.4469 69.9495 58.2054 69.3426C58.9639 68.7358 59.6466 68.4324 60.1776 68.4324C60.7844 71.1631 61.7704 73.8937 63.2116 76.6243C64.7286 79.355 66.3973 81.7064 68.2178 83.6026C70.0382 85.4989 71.7828 86.6367 73.4515 87.0918ZM125.182 89.7466H107.888C111.529 76.6243 114.108 60.5439 115.625 41.657C115.625 41.3536 116.004 40.8227 116.838 40.2159C117.673 39.6091 118.355 39.2298 118.886 39.2298C118.886 39.2298 123.058 39.2298 127.154 39.2298C128.14 39.0781 128.368 38.5471 128.974 38.1679C130.036 37.2577 130.795 37.2577 131.553 36.4992C125.485 44.0843 131.553 53.1864 131.326 61.3024C131.098 62.6678 130.947 63.9572 130.795 65.3984C129.885 72.225 129.126 79.5825 128.519 87.3193C128.519 87.6227 128.14 88.1537 127.306 88.8363C126.471 89.4432 125.789 89.7466 125.182 89.7466ZM142.476 62.7436C136.029 55.4619 123.892 44.0843 134.512 34.9821C139.821 29.6726 149.682 29.6726 154.233 35.7407C161.059 44.0843 155.75 57.7374 145.131 62.2127C144.069 62.5919 143.159 62.7436 142.476 62.7436ZM97.3445 62.4402C97.5721 59.5579 98.0272 55.7653 98.7857 51.0626C99.5442 46.3598 100.075 43.2499 100.454 41.8846C100.606 41.3536 101.061 40.8227 101.744 40.2159C102.427 39.6091 103.033 39.2298 103.488 39.2298H114.79C112.287 42.2638 110.315 45.0703 108.95 47.5734C107.584 50.1523 106.295 52.5796 105.081 55.0068C103.868 57.3582 102.882 59.1786 102.199 60.3922C102.047 60.6956 101.365 61.0749 100.151 61.6058C98.7857 62.1368 97.8755 62.4402 97.3445 62.4402ZM197.089 77.307C196.406 80.9478 194.661 84.0577 191.855 86.485C188.821 89.1397 184.649 90.5051 179.339 90.5051C169.782 90.5051 163.562 88.0778 160.453 83.2234C158.708 80.4927 157.874 77.0036 157.874 72.7559C157.874 69.9495 158.48 65.0191 159.618 57.965C159.846 56.8272 159.997 55.6895 160.149 54.5517C160.301 53.4898 160.528 52.5037 160.756 51.5177C161.818 47.8768 161.059 44.0843 162.501 40.2159C163.259 39.6091 163.942 39.2298 164.549 39.2298C164.549 39.2298 172.437 39.2298 177.671 39.2298C178.96 39.2298 180.098 39.2298 180.932 39.2298C181.539 39.5332 181.539 38.7747 182.298 38.7747C180.781 41.8087 180.781 44.8428 180.477 47.7251C180.326 48.4078 180.25 49.0146 180.098 49.6972C177.671 61.9851 176.457 70.6321 176.457 75.5624C176.457 81.5547 179.415 84.5128 185.256 84.5128C187.531 84.5128 189.731 83.8302 191.931 82.5407C194.055 81.1754 195.799 79.4308 197.089 77.307ZM194.585 75.259C194.585 70.6321 194.434 66.3845 194.13 62.6678C194.055 61.9092 193.979 61.1507 193.903 60.4681C190.717 54.0207 180.098 51.7452 182.373 42.6431C183.891 35.058 189.959 30.5069 197.544 31.2654C201.336 31.8723 204.598 33.6168 206.873 36.3475C207.328 36.8784 207.632 37.4852 207.784 38.0162C207.404 41.8846 209.68 44.9186 208.39 49.0904C208.011 49.9248 207.556 50.7592 207.025 51.5935C205.508 54.0207 203.308 56.1446 200.957 57.8133C200.654 58.496 200.502 59.4062 200.274 60.2405C199.364 64.7916 198.53 68.9634 197.847 72.8318C197.771 73.211 197.316 73.742 196.558 74.3488C195.799 74.9556 195.116 75.259 194.585 75.259ZM229.325 72.6801C231.828 69.9495 233.8 66.9154 235.242 63.5021C236.683 60.0888 237.365 56.448 237.365 52.5796C237.365 48.7112 236.379 44.9186 234.331 41.2019C234.331 40.8227 234.711 40.3676 235.545 39.6849C236.379 39.0022 237.062 38.6988 237.593 38.6988C242.144 39.0022 245.861 40.14 248.819 42.188C249.426 42.5672 249.957 43.0224 250.488 43.4775C253.673 45.6013 253.673 49.3938 254.963 52.2003C255.039 52.883 255.115 53.5656 255.115 54.3241C255.115 57.0548 254.508 59.5579 253.218 61.9851C251.929 64.3365 250.26 66.3086 248.212 67.9015C243.737 71.2389 238.579 72.9835 232.814 72.9835C231.373 72.9835 230.235 72.9076 229.325 72.6801ZM224.471 87.2435C224.471 87.6227 224.092 88.0778 223.257 88.7605C222.499 89.3673 221.74 89.7466 221.209 89.7466C221.209 89.7466 220.754 89.7466 219.996 89.7466C219.237 89.7466 218.099 89.7466 216.886 89.7466C214.155 89.5949 211.88 89.5949 208.77 89.6707C207.556 89.7466 206.418 89.7466 205.66 89.7466C204.901 89.7466 204.446 89.7466 204.446 89.7466C207.025 79.5067 208.997 67.9773 210.438 55.2344C210.514 54.5517 210.362 54.4758 210.362 54.3241C216.582 49.3938 212.031 35.7407 217.341 30.4311C221.133 27.397 224.167 36.4992 230.16 38.7747C230.842 38.7747 231.449 38.7747 232.056 38.7747C228.339 53.869 225.836 70.1012 224.471 87.2435ZM271.953 89.7466H254.659C257.087 79.2033 259.059 67.9773 260.424 56.1446C260.576 54.931 260.576 55.3102 260.576 55.0068C262.017 49.3938 260.5 43.3258 262.776 38.0162C267.327 29.6726 272.636 35.7407 277.946 39.2298C279.235 39.2298 280.373 39.2298 281.131 39.2298C280.98 39.5332 281.738 38.7747 281.738 38.7747C281.738 41.0502 281.738 43.3258 280.98 45.6013C280.752 46.6632 280.525 47.7251 280.297 48.8629C277.946 60.8473 276.201 73.6662 275.063 87.3193C275.063 87.6227 274.684 88.1537 273.85 88.8363C273.167 89.4432 272.484 89.7466 271.953 89.7466ZM301.46 87.1676C303.735 85.0438 307.528 85.8023 309.727 82.8441C310.031 82.2373 310.334 81.6305 310.637 81.0237C312.079 77.9138 313.216 74.5005 314.127 70.7838C315.189 66.3086 315.795 61.8334 315.795 57.5099C315.795 50.6833 314.43 45.222 311.775 41.2019C311.775 40.8227 312.155 40.2917 312.989 39.6091C313.747 38.9264 314.43 38.623 315.037 38.623C317.692 38.623 320.271 39.154 322.622 40.2917C325.049 41.3536 327.173 42.8707 328.918 44.8428C330.662 46.8149 332.103 49.2421 333.165 52.1245C334.227 55.0068 334.758 58.0408 334.758 61.1507C334.758 64.2606 334.379 67.2947 333.544 70.0253C332.786 72.8318 331.572 75.4107 329.904 77.9138C328.235 80.4169 326.187 82.5407 323.836 84.437C323.229 84.8921 322.622 85.3472 321.939 85.7265C321.257 86.1057 320.574 86.5608 319.815 86.8642C314.354 85.7265 309.045 83.4509 303.963 85.8782C303.052 86.3333 302.218 86.7125 301.46 87.1676ZM297.743 89.6707C297.288 89.8983 296.681 89.9741 295.922 89.9741C295.164 89.9741 294.33 89.9741 293.495 89.9741C290.082 89.8983 285.986 89.7466 281.359 89.5949C283.71 79.9618 285.683 69.1909 287.124 57.1306C287.275 55.917 287.275 56.0687 287.351 55.8412C288.641 48.6353 287.124 41.8087 290.158 35.7407C294.709 28.1556 299.26 37.2577 304.342 38.8505C305.176 38.8505 306.011 38.7747 306.693 38.7747C307.452 38.7747 308.134 38.7747 308.817 38.7747C305.555 52.883 303.204 68.0532 301.763 84.2853C301.687 85.3472 301.46 86.2574 301.004 86.8642C300.853 87.0159 300.322 87.471 299.487 88.1537C298.653 88.9881 298.122 89.4432 297.743 89.6707ZM154.309 161.881C151.806 146.635 148.847 131.768 145.586 117.129C145.358 115.991 145.055 114.853 144.827 113.791C141.414 109.316 131.553 107.041 135.346 100.973C140.655 93.3874 152.033 97.9385 161.363 97.4075C162.576 97.4075 163.79 97.4075 164.852 97.4075C166.976 97.4075 168.341 97.4075 168.341 97.4075C169.479 108.178 170.617 116.067 171.678 121.073C172.74 126.155 173.651 130.099 174.409 132.906C176.078 139.05 177.822 142.16 179.795 142.16C180.326 142.16 180.856 142.008 181.387 141.629C179.339 145.573 176.761 151.338 173.499 158.771C173.271 159.226 172.665 159.909 171.754 160.743C170.844 161.502 170.01 161.957 169.327 161.957H154.309V161.881ZM184.725 105.903L184.573 100.517C184.573 100.138 185.104 99.4555 186.09 98.697C187.152 97.8626 187.986 97.4834 188.745 97.4834H203.915C200.123 103.931 193.675 116.446 184.801 135.105C184.573 135.636 184.042 136.243 183.132 137.078C182.222 137.836 181.387 138.215 180.705 138.215C183.36 128.127 184.725 117.356 184.725 105.903ZM218.099 161.881H196.027C198.909 149.29 201.26 136.016 203.081 121.983C203.232 120.845 203.384 119.632 203.46 118.494C198.226 111.516 194.434 102.414 200.502 94.8286C208.087 87.2435 217.948 91.7945 224.547 97.2558C225.76 97.3317 226.974 97.3317 228.036 97.3317C230.084 97.3317 231.449 97.3317 231.449 97.3317C227.05 116.067 223.94 136.471 222.195 158.695C222.195 159.074 221.664 159.757 220.678 160.591C219.692 161.502 218.782 161.881 218.099 161.881ZM230.311 161.729C233.345 149.593 235.773 135.712 237.669 119.935C237.821 118.722 237.972 117.508 238.124 116.294C239.262 110.075 239.262 104.007 240.02 97.18C241.537 89.5949 249.881 90.3534 252.763 96.5732C252.991 96.8007 252.687 97.18 253.446 97.18C258.3 96.8766 262.32 96.7248 265.43 96.7248C260.879 116.219 257.769 137.002 256.101 159.074C256.101 159.529 255.57 160.136 254.584 161.046C253.598 161.881 252.687 162.26 251.929 162.26C246.316 162.26 239.186 162.108 230.311 161.729ZM258.68 162.033C262.169 160.819 265.203 158.24 267.858 154.296C270.512 150.352 271.802 146.331 271.802 142.311C271.802 136.85 269.299 133.133 264.293 131.085C263.762 130.782 263.534 130.251 263.534 129.492C263.534 127.824 264.065 126.762 265.051 126.534C267.327 125.927 269.223 123.955 270.816 120.542C272.409 117.129 273.167 113.336 273.167 109.24C273.167 105.068 271.802 102.034 269.223 100.062C269.223 99.6072 269.754 98.9245 270.816 98.0902C271.878 97.2558 272.788 96.8007 273.546 96.8007C283.559 97.4834 290.082 100.593 292.964 106.282C293.874 107.951 294.33 109.923 294.33 112.123C294.33 114.322 293.799 116.294 292.661 118.191C291.599 120.087 290.234 121.604 288.489 122.893C286.82 124.107 284.848 125.245 282.573 126.155C278.477 127.824 274.077 128.962 269.526 129.417C271.423 129.265 272.94 129.265 274.153 129.265C280.145 129.265 284.848 130.554 288.261 133.057C291.675 135.561 293.419 139.126 293.419 143.752C293.419 146.407 292.812 148.91 291.675 151.11C290.537 153.31 289.02 155.13 287.2 156.571C285.379 158.012 283.255 159.226 280.752 160.212C276.201 162.033 271.195 162.943 265.734 162.943C263.155 162.867 260.879 162.564 258.68 162.033ZM324.746 129.113C332.255 129.948 337.792 130.858 341.281 131.92C341.281 133.664 340.902 134.954 340.219 135.788C335.061 136.092 329.449 136.926 323.532 138.215C322.698 144.89 321.939 151.717 321.408 158.771C321.408 159.15 320.877 159.833 319.891 160.667C318.905 161.502 317.995 161.881 317.312 161.881H295.24C298.805 149.138 301.535 132.754 303.507 112.805C303.583 111.819 303.28 112.274 303.128 112.123C300.853 110.833 296.302 109.316 297.819 107.799C303.128 99.4555 313.747 86.5608 321.939 97.4075C322.622 97.4075 323.229 97.4075 323.911 97.4075C327.78 97.4075 330.89 97.4075 330.89 97.4075C328.311 107.799 326.263 118.418 324.746 129.113ZM345.074 126.079C344.315 121.301 342.874 116.522 340.75 111.819C338.626 107.116 336.503 103.551 334.379 101.124C334.531 99.6072 334.986 98.3177 335.744 97.3317H352.962C352.735 100.366 352.28 104.538 351.521 109.695C350.763 114.853 350.004 119.253 349.17 122.893C349.018 123.424 348.487 124.107 347.577 124.866C346.667 125.7 345.832 126.079 345.074 126.079ZM342.95 142.387C343.329 141.932 344.088 141.325 345.301 140.491C346.515 139.657 347.501 139.277 348.184 139.277C347.122 148.683 346.06 155.054 345.15 158.468C344.846 159.074 344.315 159.833 343.481 160.667C342.647 161.502 341.964 161.881 341.357 161.881H323.987C331.724 156.723 338.02 150.2 342.95 142.387Z" fill="#FFFAFA"/>
<path d="M57.8616 138.609C59.8378 115.739 127.389 121.576 129.365 98.7069L110.671 98.214C108.694 121.083 41.1434 115.246 39.1672 138.116" fill="#74CF5D"/>
<path d="M78.5591 96.4782C61.8053 106.736 45.3016 79.7811 28.5478 90.0389L33.9078 96.9604C50.6616 86.7026 67.1652 113.657 83.919 103.4" fill="#43A4EA"/>
<path d="M358.411 58.8114C356.374 35.9473 423.91 29.9319 421.873 7.06781L403.379 9.83784C405.415 32.702 337.88 38.7173 339.916 61.5814" fill="#E9C039"/>
<path d="M399.413 44.6969C388.082 69.1638 347.075 50.173 335.744 74.6399L347.586 78.6765C358.917 54.2095 399.924 73.2004 411.255 48.7335" fill="#EA6F43"/>
</svg>
