<svg width="427" height="163" viewBox="0 0 427 163" fill="none" xmlns="http://www.w3.org/2000/svg">
<path d="M388.84 69.6451L389.828 69.8028L389.862 69.5876L389.804 69.3776L388.84 69.6451ZM388.824 69.7439L389.803 69.9501L389.808 69.9259L389.812 69.9015L388.824 69.7439ZM386.967 78.5573L387.877 78.9723L387.923 78.8717L387.946 78.7635L386.967 78.5573ZM383.139 86.9523L383.928 87.5661L384 87.4737L384.049 87.3672L383.139 86.9523ZM377.417 94.312L378.056 95.0813L378.14 95.0117L378.207 94.9258L377.417 94.312ZM370.24 100.274L370.765 101.125L370.825 101.088L370.879 101.043L370.24 100.274ZM362.36 105.135L362.849 106.007L362.867 105.997L362.885 105.986L362.36 105.135ZM354.294 109.651L354.543 110.62L354.669 110.588L354.783 110.524L354.294 109.651ZM345.216 111.981L344.967 111.012L344.808 111.053L344.671 111.142L345.216 111.981ZM337.372 117.074L337.618 118.043L337.778 118.002L337.916 117.912L337.372 117.074ZM328.409 119.347L328.163 118.378L328.159 118.379L328.409 119.347ZM319.486 121.648L319.237 120.679L319.227 120.682L319.216 120.685L319.486 121.648ZM310.636 124.13L310.366 123.167L310.316 123.181L310.267 123.2L310.636 124.13ZM302.019 127.542L302.048 128.541L302.224 128.536L302.388 128.472L302.019 127.542ZM292.669 127.808L292.641 126.808L292.455 126.813L292.284 126.885L292.669 127.808ZM284.009 131.429L284.195 132.412L284.298 132.392L284.395 132.352L284.009 131.429ZM274.95 133.148L275.084 134.139L275.11 134.136L275.136 134.131L274.95 133.148ZM265.813 134.386L265.679 133.395L265.657 133.398L265.635 133.402L265.813 134.386ZM256.728 136.035L256.843 137.028L256.875 137.024L256.906 137.018L256.728 136.035ZM247.563 137.098L247.592 138.098L247.635 138.097L247.678 138.092L247.563 137.098ZM238.33 137.366L238.301 136.367L238.266 136.368L238.232 136.371L238.33 137.366ZM229.154 138.268L229.026 139.26L229.139 139.274L229.252 139.263L229.154 138.268ZM219.873 137.066L220.001 136.074L219.953 136.068L219.904 136.067L219.873 137.066ZM210.672 136.782L210.703 135.783L210.587 135.779L210.473 135.802L210.672 136.782ZM201.512 138.642L201.599 139.639L201.656 139.634L201.711 139.622L201.512 138.642ZM192.274 139.452L192.072 140.431L192.215 140.46L192.361 140.448L192.274 139.452ZM183.095 137.567L183.296 136.588L183.252 136.579L183.206 136.574L183.095 137.567ZM173.94 136.545L174.051 135.552L173.917 135.537L173.783 135.558L173.94 136.545ZM164.667 138.019L164.626 139.018L164.726 139.022L164.824 139.007L164.667 138.019ZM155.461 137.64L155.502 136.641L155.488 136.641L155.461 137.64ZM146.231 137.39L145.898 138.333L146.046 138.385L146.204 138.39L146.231 137.39ZM137.303 134.227L137.637 133.284L137.439 133.214L137.229 133.229L137.303 134.227ZM127.949 134.916L127.837 135.909L127.93 135.92L128.022 135.913L127.949 134.916ZM118.778 133.885L118.478 134.84L118.57 134.868L118.666 134.879L118.778 133.885ZM109.896 131.097L110.195 130.143L110.194 130.142L109.896 131.097ZM101.063 128.336L101.361 127.381L101.276 127.355L101.187 127.344L101.063 128.336ZM91.9165 127.194L91.6878 128.168L91.7397 128.18L91.7926 128.187L91.9165 127.194ZM82.9702 125.093L82.7249 126.062L82.7332 126.064L82.7415 126.066L82.9702 125.093ZM74.0667 122.84L74.3119 121.871L74.2926 121.866L74.2732 121.862L74.0667 122.84ZM65.043 120.936L64.7703 121.898L64.8031 121.907L64.8365 121.914L65.043 120.936ZM56.1232 118.407L55.5448 119.222L55.6851 119.322L55.8505 119.369L56.1232 118.407ZM48.395 112.926L48.9734 112.111L48.8943 112.055L48.8058 112.015L48.395 112.926ZM40.0764 109.177L40.4873 108.266L40.4778 108.261L40.4682 108.257L40.0764 109.177ZM31.6309 105.58L31.1831 106.474L31.2107 106.488L31.239 106.5L31.6309 105.58ZM23.3727 101.444L22.7923 102.258L22.8555 102.303L22.9249 102.338L23.3727 101.444ZM15.8383 96.0743L15.0693 96.7136L15.1523 96.8133L15.2579 96.8886L15.8383 96.0743ZM9.91521 88.9496L9.10219 89.5319L9.12318 89.5612L9.14624 89.5889L9.91521 88.9496ZM4.55596 81.4661L3.62576 81.8332L3.67107 81.948L3.74294 82.0483L4.55596 81.4661ZM1.10251 72.7146L0.112468 72.5738L0.0752476 72.8357L0.172319 73.0817L1.10251 72.7146ZM2.43101 63.3695L1.52281 62.951L1.46156 63.0839L1.44097 63.2288L2.43101 63.3695ZM6.29566 54.9833L5.59518 54.2696L5.46424 54.3981L5.38746 54.5647L6.29566 54.9833ZM12.8317 48.5681L13.5322 49.2817L13.5759 49.2388L13.6141 49.1909L12.8317 48.5681ZM18.5926 41.3321L17.9476 40.5679L17.8719 40.6318L17.8102 40.7092L18.5926 41.3321ZM25.711 35.3236L25.4376 34.3617L25.2305 34.4206L25.066 34.5594L25.711 35.3236ZM34.851 32.7255L35.1245 33.6874L35.23 33.6574L35.3265 33.6053L34.851 32.7255ZM42.8807 28.3858L42.4725 27.4729L42.4383 27.4882L42.4053 27.5061L42.8807 28.3858ZM51.2536 24.6422L51.6617 25.5551L51.6982 25.5388L51.7332 25.5197L51.2536 24.6422ZM59.4118 20.1828L59.059 19.2471L58.9936 19.2718L58.9322 19.3054L59.4118 20.1828ZM68.0421 16.929L67.9857 15.9306L67.8327 15.9393L67.6894 15.9933L68.0421 16.929ZM77.4724 16.3964L77.5287 17.3948L77.6309 17.389L77.7298 17.3627L77.4724 16.3964ZM86.3434 14.0328L86.0911 13.0651L86.0859 13.0665L86.3434 14.0328ZM95.24 11.7137L95.4922 12.6814L95.569 12.6614L95.6416 12.6296L95.24 11.7137ZM103.857 7.93521L103.674 6.952L103.561 6.97305L103.455 7.0194L103.857 7.93521ZM112.925 6.25227L112.908 5.25241L112.825 5.25379L112.742 5.26906L112.925 6.25227ZM122.223 6.09881L122.24 7.09868L122.24 7.09867L122.223 6.09881ZM131.474 5.94227L131.491 6.94212L131.606 6.94017L131.718 6.91196L131.474 5.94227ZM140.465 3.67659L140.44 2.6769L140.329 2.67967L140.221 2.7069L140.465 3.67659ZM149.683 3.44724L149.708 4.44695L149.714 4.44676L149.683 3.44724ZM158.877 3.15998L158.908 4.15949L158.945 4.15835L158.981 4.15453L158.877 3.15998ZM168.026 2.20134L167.991 1.20194L167.956 1.20314L167.922 1.20679L168.026 2.20134ZM177.214 1.88497L177.205 0.885003L177.193 0.885114L177.18 0.885559L177.214 1.88497ZM186.407 1.80599L186.416 2.80595L186.429 2.80584L186.443 2.80537L186.407 1.80599ZM195.601 1.48319L195.637 2.48257L195.646 2.48226L195.655 2.48177L195.601 1.48319ZM204.805 0.99276L204.906 -0.00211239L204.829 -0.00994289L204.752 -0.0058229L204.805 0.99276ZM213.984 1.92582L213.883 2.9207L213.95 2.92758L214.018 2.92522L213.984 1.92582ZM223.204 1.60666L223.366 0.619838L223.268 0.603843L223.17 0.607263L223.204 1.60666ZM232.327 3.10225L232.165 4.08908L232.254 4.10361L232.344 4.10211L232.327 3.10225ZM241.561 2.94768L241.709 1.95865L241.627 1.94643L241.544 1.94782L241.561 2.94768ZM250.67 4.30853L250.522 5.29755L250.53 5.29882L250.539 5.29995L250.67 4.30853ZM259.782 5.51017L259.651 6.50159L259.681 6.50557L259.712 6.50771L259.782 5.51017ZM268.971 6.15648L269.11 5.16622L269.076 5.16138L269.041 5.15894L268.971 6.15648ZM278.081 7.43756L278.235 6.4495L278.227 6.44834L278.22 6.4473L278.081 7.43756ZM287.172 8.85548L287.367 7.87468L287.347 7.87063L287.326 7.86743L287.172 8.85548ZM296.204 10.6513L296.419 9.67463L296.409 9.67244L296.399 9.67045L296.204 10.6513ZM305.213 12.6344L305.47 11.6681L305.449 11.6625L305.428 11.6578L305.213 12.6344ZM314.126 15.0069L314.58 14.116L314.485 14.0678L314.383 14.0406L314.126 15.0069ZM322.454 19.2526L321.999 20.1435L322.131 20.2105L322.276 20.2367L322.454 19.2526ZM331.556 20.8955L332.009 20.0039L331.878 19.9375L331.734 19.9114L331.556 20.8955ZM339.802 25.0826L339.349 25.9742L339.384 25.9918L339.42 26.0066L339.802 25.0826ZM348.262 28.5826L348.741 27.7051L348.694 27.6792L348.644 27.6585L348.262 28.5826ZM356.274 32.9625L355.795 33.8399L355.84 33.8645L355.887 33.8843L356.274 32.9625ZM364.777 36.5367L365.436 35.7841L365.314 35.6775L365.165 35.6148L364.777 36.5367ZM371.7 42.5939L371.041 43.3465L371.051 43.3545L371.06 43.3623L371.7 42.5939ZM378.688 48.4146L379.478 47.801L379.411 47.7155L379.328 47.6462L378.688 48.4146ZM384.252 55.5735L385.193 55.2361L385.139 55.0859L385.041 54.9598L384.252 55.5735ZM387.277 64.0156L388.241 63.7481L388.231 63.7128L388.218 63.6783L387.277 64.0156ZM388.84 69.6451L387.853 69.4875L387.837 69.5862L388.824 69.7439L389.812 69.9015L389.828 69.8028L388.84 69.6451ZM388.824 69.7439L387.846 69.5377L385.989 78.3512L386.967 78.5573L387.946 78.7635L389.803 69.9501L388.824 69.7439ZM386.967 78.5573L386.057 78.1424L382.229 86.5374L383.139 86.9523L384.049 87.3672L387.877 78.9723L386.967 78.5573ZM383.139 86.9523L382.349 86.3385L376.628 93.6983L377.417 94.312L378.207 94.9258L383.928 87.5661L383.139 86.9523ZM377.417 94.312L376.778 93.5428L369.601 99.5046L370.24 100.274L370.879 101.043L378.056 95.0813L377.417 94.312ZM370.24 100.274L369.715 99.4227L361.835 104.284L362.36 105.135L362.885 105.986L370.765 101.125L370.24 100.274ZM362.36 105.135L361.872 104.262L353.806 108.779L354.294 109.651L354.783 110.524L362.849 106.007L362.36 105.135ZM354.294 109.651L354.046 108.683L344.967 111.012L345.216 111.981L345.464 112.949L354.543 110.62L354.294 109.651ZM345.216 111.981L344.671 111.142L336.827 116.235L337.372 117.074L337.916 117.912L345.76 112.819L345.216 111.981ZM337.372 117.074L337.126 116.104L328.163 118.378L328.409 119.347L328.654 120.317L337.618 118.043L337.372 117.074ZM328.409 119.347L328.159 118.379L319.237 120.679L319.486 121.648L319.736 122.616L328.658 120.316L328.409 119.347ZM319.486 121.648L319.216 120.685L310.366 123.167L310.636 124.13L310.906 125.093L319.756 122.611L319.486 121.648ZM310.636 124.13L310.267 123.2L301.651 126.612L302.019 127.542L302.388 128.472L311.004 125.06L310.636 124.13ZM302.019 127.542L301.991 126.542L292.641 126.808L292.669 127.808L292.698 128.807L302.048 128.541L302.019 127.542ZM292.669 127.808L292.284 126.885L283.623 130.507L284.009 131.429L284.395 132.352L293.055 128.73L292.669 127.808ZM284.009 131.429L283.822 130.447L274.764 132.166L274.95 133.148L275.136 134.131L284.195 132.412L284.009 131.429ZM274.95 133.148L274.816 132.157L265.679 133.395L265.813 134.386L265.948 135.377L275.084 134.139L274.95 133.148ZM265.813 134.386L265.635 133.402L256.549 135.051L256.728 136.035L256.906 137.018L265.992 135.37L265.813 134.386ZM256.728 136.035L256.612 135.041L247.448 136.105L247.563 137.098L247.678 138.092L256.843 137.028L256.728 136.035ZM247.563 137.098L247.534 136.099L238.301 136.367L238.33 137.366L238.359 138.366L247.592 138.098L247.563 137.098ZM238.33 137.366L238.232 136.371L229.056 137.273L229.154 138.268L229.252 139.263L238.428 138.361L238.33 137.366ZM229.154 138.268L229.283 137.276L220.001 136.074L219.873 137.066L219.744 138.058L229.026 139.26L229.154 138.268ZM219.873 137.066L219.904 136.067L210.703 135.783L210.672 136.782L210.641 137.782L219.842 138.066L219.873 137.066ZM210.672 136.782L210.473 135.802L201.313 137.662L201.512 138.642L201.711 139.622L210.871 137.762L210.672 136.782ZM201.512 138.642L201.425 137.646L192.186 138.455L192.274 139.452L192.361 140.448L201.599 139.639L201.512 138.642ZM192.274 139.452L192.475 138.472L183.296 136.588L183.095 137.567L182.894 138.547L192.072 140.431L192.274 139.452ZM183.095 137.567L183.206 136.574L174.051 135.552L173.94 136.545L173.829 137.539L182.984 138.561L183.095 137.567ZM173.94 136.545L173.783 135.558L164.51 137.031L164.667 138.019L164.824 139.007L174.097 137.533L173.94 136.545ZM164.667 138.019L164.708 137.02L155.502 136.641L155.461 137.64L155.42 138.639L164.626 139.018L164.667 138.019ZM155.461 137.64L155.488 136.641L146.259 136.39L146.231 137.39L146.204 138.39L155.434 138.64L155.461 137.64ZM146.231 137.39L146.565 136.447L137.637 133.284L137.303 134.227L136.969 135.169L145.898 138.333L146.231 137.39ZM137.303 134.227L137.229 133.229L127.876 133.918L127.949 134.916L128.022 135.913L137.376 135.224L137.303 134.227ZM127.949 134.916L128.061 133.922L118.889 132.892L118.778 133.885L118.666 134.879L127.837 135.909L127.949 134.916ZM118.778 133.885L119.077 132.931L110.195 130.143L109.896 131.097L109.596 132.051L118.478 134.84L118.778 133.885ZM109.896 131.097L110.194 130.142L101.361 127.381L101.063 128.336L100.765 129.29L109.597 132.051L109.896 131.097ZM101.063 128.336L101.187 127.344L92.0403 126.202L91.9165 127.194L91.7926 128.187L100.939 129.328L101.063 128.336ZM91.9165 127.194L92.1451 126.221L83.1989 124.119L82.9702 125.093L82.7415 126.066L91.6878 128.168L91.9165 127.194ZM82.9702 125.093L83.2154 124.123L74.3119 121.871L74.0667 122.84L73.8214 123.81L82.7249 126.062L82.9702 125.093ZM74.0667 122.84L74.2732 121.862L65.2496 119.957L65.043 120.936L64.8365 121.914L73.8601 123.819L74.0667 122.84ZM65.043 120.936L65.3158 119.974L56.396 117.444L56.1232 118.407L55.8505 119.369L64.7703 121.898L65.043 120.936ZM56.1232 118.407L56.7017 117.591L48.9734 112.111L48.395 112.926L47.8165 113.742L55.5448 119.222L56.1232 118.407ZM48.395 112.926L48.8058 112.015L40.4873 108.266L40.0764 109.177L39.6655 110.089L47.9841 113.838L48.395 112.926ZM40.0764 109.177L40.4682 108.257L32.0228 104.66L31.6309 105.58L31.239 106.5L39.6845 110.097L40.0764 109.177ZM31.6309 105.58L32.0787 104.686L23.8205 100.55L23.3727 101.444L22.9249 102.338L31.1831 106.474L31.6309 105.58ZM23.3727 101.444L23.9531 100.63L16.4187 95.26L15.8383 96.0743L15.2579 96.8886L22.7923 102.258L23.3727 101.444ZM15.8383 96.0743L16.6073 95.435L10.6842 88.3104L9.91521 88.9496L9.14624 89.5889L15.0693 96.7136L15.8383 96.0743ZM9.91521 88.9496L10.7282 88.3674L5.36898 80.8839L4.55596 81.4661L3.74294 82.0483L9.10219 89.5319L9.91521 88.9496ZM4.55596 81.4661L5.48615 81.099L2.03271 72.3475L1.10251 72.7146L0.172319 73.0817L3.62576 81.8332L4.55596 81.4661ZM1.10251 72.7146L2.09256 72.8553L3.42106 63.5103L2.43101 63.3695L1.44097 63.2288L0.112468 72.5738L1.10251 72.7146ZM2.43101 63.3695L3.33922 63.7881L7.20386 55.4018L6.29566 54.9833L5.38746 54.5647L1.52281 62.951L2.43101 63.3695ZM6.29566 54.9833L6.99614 55.6969L13.5322 49.2817L12.8317 48.5681L12.1312 47.8544L5.59518 54.2696L6.29566 54.9833ZM12.8317 48.5681L13.6141 49.1909L19.3749 41.9549L18.5926 41.3321L17.8102 40.7092L12.0494 47.9452L12.8317 48.5681ZM18.5926 41.3321L19.2376 42.0962L26.356 36.0878L25.711 35.3236L25.066 34.5594L17.9476 40.5679L18.5926 41.3321ZM25.711 35.3236L25.9844 36.2855L35.1245 33.6874L34.851 32.7255L34.5776 31.7637L25.4376 34.3617L25.711 35.3236ZM34.851 32.7255L35.3265 33.6053L43.3562 29.2655L42.8807 28.3858L42.4053 27.5061L34.3756 31.8458L34.851 32.7255ZM42.8807 28.3858L43.2889 29.2987L51.6617 25.5551L51.2536 24.6422L50.8454 23.7293L42.4725 27.4729L42.8807 28.3858ZM51.2536 24.6422L51.7332 25.5197L59.8915 21.0603L59.4118 20.1828L58.9322 19.3054L50.7739 23.7647L51.2536 24.6422ZM59.4118 20.1828L59.7646 21.1186L68.3949 17.8647L68.0421 16.929L67.6894 15.9933L59.059 19.2471L59.4118 20.1828ZM68.0421 16.929L68.0985 17.9274L77.5287 17.3948L77.4724 16.3964L77.416 15.398L67.9857 15.9306L68.0421 16.929ZM77.4724 16.3964L77.7298 17.3627L86.6008 14.9991L86.3434 14.0328L86.0859 13.0665L77.2149 15.4301L77.4724 16.3964ZM86.3434 14.0328L86.5956 15.0005L95.4922 12.6814L95.24 11.7137L94.9878 10.7461L86.0911 13.0651L86.3434 14.0328ZM95.24 11.7137L95.6416 12.6296L104.258 8.85102L103.857 7.93521L103.455 7.0194L94.8384 10.7979L95.24 11.7137ZM103.857 7.93521L104.039 8.91842L113.107 7.23549L112.925 6.25227L112.742 5.26906L103.674 6.952L103.857 7.93521ZM112.925 6.25227L112.941 7.25214L122.24 7.09867L122.223 6.09881L122.207 5.09895L112.908 5.25241L112.925 6.25227ZM122.223 6.09881L122.24 7.09867L131.491 6.94212L131.474 5.94227L131.457 4.94241L122.207 5.09895L122.223 6.09881ZM131.474 5.94227L131.718 6.91196L140.71 4.64628L140.465 3.67659L140.221 2.7069L131.229 4.97258L131.474 5.94227ZM140.465 3.67659L140.49 4.67628L149.708 4.44693L149.683 3.44724L149.658 2.44755L140.44 2.6769L140.465 3.67659ZM149.683 3.44724L149.714 4.44676L158.908 4.15949L158.877 3.15998L158.846 2.16046L149.652 2.44773L149.683 3.44724ZM158.877 3.15998L158.981 4.15453L168.13 3.1959L168.026 2.20134L167.922 1.20679L158.773 2.16542L158.877 3.15998ZM168.026 2.20134L168.06 3.20075L177.248 2.88437L177.214 1.88497L177.18 0.885559L167.991 1.20194L168.026 2.20134ZM177.214 1.88497L177.223 2.88493L186.416 2.80595L186.407 1.80599L186.399 0.806027L177.205 0.885003L177.214 1.88497ZM186.407 1.80599L186.443 2.80537L195.637 2.48257L195.601 1.48319L195.566 0.483806L186.372 0.806606L186.407 1.80599ZM195.601 1.48319L195.655 2.48177L204.858 1.99134L204.805 0.99276L204.752 -0.0058229L195.548 0.484607L195.601 1.48319ZM204.805 0.99276L204.704 1.98763L213.883 2.9207L213.984 1.92582L214.085 0.93095L204.906 -0.00211239L204.805 0.99276ZM213.984 1.92582L214.018 2.92522L223.239 2.60607L223.204 1.60666L223.17 0.607263L213.949 0.926421L213.984 1.92582ZM223.204 1.60666L223.042 2.59349L232.165 4.08908L232.327 3.10225L232.489 2.11542L223.366 0.619838L223.204 1.60666ZM232.327 3.10225L232.344 4.10211L241.578 3.94754L241.561 2.94768L241.544 1.94782L232.31 2.10239L232.327 3.10225ZM241.561 2.94768L241.413 3.9367L250.522 5.29755L250.67 4.30853L250.817 3.31951L241.709 1.95865L241.561 2.94768ZM250.67 4.30853L250.539 5.29995L259.651 6.50159L259.782 5.51017L259.912 4.51876L250.8 3.31711L250.67 4.30853ZM259.782 5.51017L259.712 6.50771L268.901 7.15401L268.971 6.15648L269.041 5.15894L259.852 4.51264L259.782 5.51017ZM268.971 6.15648L268.832 7.14673L277.941 8.42781L278.081 7.43756L278.22 6.4473L269.11 5.16622L268.971 6.15648ZM278.081 7.43756L277.927 8.42561L287.018 9.84354L287.172 8.85548L287.326 7.86743L278.235 6.4495L278.081 7.43756ZM287.172 8.85548L286.977 9.83628L296.009 11.6321L296.204 10.6513L296.399 9.67045L287.367 7.87468L287.172 8.85548ZM296.204 10.6513L295.989 11.6279L304.998 13.611L305.213 12.6344L305.428 11.6578L296.419 9.67463L296.204 10.6513ZM305.213 12.6344L304.956 13.6008L313.868 15.9733L314.126 15.0069L314.383 14.0406L305.47 11.6681L305.213 12.6344ZM314.126 15.0069L313.672 15.8978L321.999 20.1435L322.454 19.2526L322.908 18.3617L314.58 14.116L314.126 15.0069ZM322.454 19.2526L322.276 20.2367L331.378 21.8796L331.556 20.8955L331.734 19.9114L322.631 18.2685L322.454 19.2526ZM331.556 20.8955L331.103 21.7871L339.349 25.9742L339.802 25.0826L340.255 24.1909L332.009 20.0039L331.556 20.8955ZM339.802 25.0826L339.42 26.0066L347.879 29.5066L348.262 28.5826L348.644 27.6585L340.184 24.1585L339.802 25.0826ZM348.262 28.5826L347.782 29.4601L355.795 33.8399L356.274 32.9625L356.754 32.085L348.741 27.7051L348.262 28.5826ZM356.274 32.9625L355.887 33.8843L364.39 37.4586L364.777 36.5367L365.165 35.6148L356.662 32.0406L356.274 32.9625ZM364.777 36.5367L364.119 37.2893L371.041 43.3465L371.7 42.5939L372.358 41.8414L365.436 35.7841L364.777 36.5367ZM371.7 42.5939L371.06 43.3623L378.048 49.183L378.688 48.4146L379.328 47.6462L372.34 41.8256L371.7 42.5939ZM378.688 48.4146L377.899 49.0282L383.462 56.1871L384.252 55.5735L385.041 54.9598L379.478 47.801L378.688 48.4146ZM384.252 55.5735L383.31 55.9108L386.336 64.3529L387.277 64.0156L388.218 63.6783L385.193 55.2361L384.252 55.5735ZM387.277 64.0156L386.313 64.2831L387.876 69.9127L388.84 69.6451L389.804 69.3776L388.241 63.7481L387.277 64.0156Z" fill="#383838"/>
<path d="M273.546 96.8008C283.558 97.4834 290.082 100.593 292.964 106.282C293.874 107.951 294.329 109.923 294.329 112.122C294.329 114.322 293.799 116.294 292.661 118.19C291.599 120.087 290.234 121.604 288.489 122.894C286.821 124.107 284.848 125.244 282.572 126.154C278.476 127.823 274.077 128.961 269.526 129.416C271.423 129.264 272.94 129.265 274.153 129.265C280.145 129.265 284.848 130.555 288.262 133.058C291.675 135.561 293.419 139.125 293.419 143.752C293.419 146.407 292.812 148.91 291.675 151.109C290.537 153.309 289.02 155.13 287.199 156.571C285.379 158.012 283.255 159.226 280.752 160.212C276.201 162.032 271.195 162.942 265.733 162.942C263.155 162.867 260.879 162.563 258.68 162.032C262.169 160.819 265.203 158.24 267.857 154.296C270.512 150.352 271.802 146.331 271.802 142.311C271.802 136.85 269.299 133.133 264.293 131.085C263.762 130.782 263.534 130.251 263.534 129.492C263.534 127.824 264.065 126.762 265.051 126.534C267.326 125.927 269.223 123.955 270.815 120.542C272.408 117.129 273.167 113.336 273.167 109.24C273.167 105.068 271.802 102.034 269.223 100.062C269.223 99.6064 269.754 98.9239 270.815 98.0898C271.877 97.2557 272.787 96.801 273.546 96.8008ZM240.021 97.1797C241.538 89.5946 249.881 90.3535 252.764 96.5732C252.99 96.8008 252.688 97.1797 253.446 97.1797C258.301 96.8763 262.321 96.7246 265.431 96.7246C260.88 116.218 257.769 137.002 256.101 159.074C256.1 159.529 255.57 160.136 254.584 161.046C253.598 161.88 252.687 162.26 251.929 162.26C246.316 162.26 239.186 162.108 230.312 161.729C233.346 149.592 235.773 135.711 237.669 119.935L238.124 116.294C239.262 110.074 239.262 104.006 240.021 97.1797ZM135.346 100.973C140.655 93.3877 152.033 97.938 161.362 97.4072H168.341C169.479 108.178 170.617 116.066 171.679 121.072C172.741 126.154 173.651 130.099 174.409 132.905C176.078 139.049 177.823 142.159 179.795 142.159C180.326 142.159 180.857 142.007 181.388 141.628C179.34 145.572 176.761 151.337 173.499 158.771C173.271 159.226 172.664 159.909 171.754 160.743C170.844 161.501 170.01 161.956 169.327 161.956H154.309V161.881C151.806 146.635 148.847 131.768 145.586 117.129C145.358 115.991 145.055 114.853 144.827 113.791C141.414 109.316 131.554 107.04 135.346 100.973ZM200.502 94.8281C208.087 87.2432 217.948 91.7946 224.547 97.2559C225.76 97.3317 226.974 97.3311 228.036 97.3311H231.449C227.05 116.066 223.94 136.47 222.195 158.694C222.195 159.074 221.665 159.757 220.679 160.591C219.693 161.501 218.782 161.881 218.1 161.881H196.026C198.909 149.29 201.261 136.015 203.081 121.982C203.233 120.845 203.384 119.632 203.46 118.494C201.126 115.382 199.08 111.848 198.065 108.214C194.544 114.993 190.106 123.952 184.801 135.105C184.573 135.636 184.042 136.243 183.132 137.077C182.222 137.836 181.388 138.215 180.705 138.215C183.36 128.127 184.725 117.356 184.725 105.902L184.573 100.517C184.574 100.137 185.104 99.4545 186.09 98.6963C187.152 97.8619 187.987 97.4834 188.745 97.4834H198.796C199.244 96.5823 199.808 95.695 200.502 94.8281ZM297.818 107.799C303.128 99.4552 313.748 86.5605 321.939 97.4072H330.89C328.311 107.799 326.263 118.418 324.746 129.113C332.255 129.948 337.792 130.857 341.281 131.919C341.281 133.664 340.902 134.954 340.22 135.788C335.062 136.091 329.449 136.925 323.532 138.215C322.698 144.89 321.939 151.716 321.408 158.771C321.408 159.15 320.878 159.833 319.892 160.667C318.906 161.501 317.995 161.881 317.312 161.881H295.239C298.804 149.138 301.536 132.753 303.508 112.805C303.584 111.819 303.28 112.274 303.128 112.122C300.852 110.833 296.302 109.316 297.818 107.799ZM348.184 139.277C347.122 148.682 346.06 155.053 345.149 158.467C344.846 159.074 344.316 159.833 343.481 160.667C342.647 161.501 341.964 161.881 341.357 161.881H323.987C331.724 156.723 338.02 150.199 342.95 142.387C343.329 141.932 344.088 141.325 345.302 140.49C346.515 139.656 347.501 139.277 348.184 139.277ZM352.962 97.3311C352.734 100.365 352.28 104.537 351.521 109.695C350.763 114.853 350.004 119.253 349.17 122.894C349.018 123.424 348.487 124.107 347.577 124.865C346.667 125.699 345.833 126.079 345.074 126.079C344.316 121.301 342.874 116.522 340.75 111.819C338.626 107.117 336.503 103.551 334.379 101.124C334.531 99.607 334.986 98.3171 335.744 97.3311H352.962ZM60.1777 68.4316C60.7845 71.1623 61.7707 73.8934 63.2119 76.624C64.7289 79.3546 66.3974 81.7063 68.2178 83.6025C70.0381 85.4987 71.7825 86.6367 73.4512 87.0918C73.1478 88.7603 72.6927 89.8981 72.0859 90.5049C69.507 90.5049 66.3973 90.2012 62.9082 89.5186C59.3434 88.8359 56.7648 88.0013 55.1719 86.9395V84.5879C55.1719 79.7336 55.7783 75.1827 56.916 70.8594C56.9919 70.4802 57.4468 69.9494 58.2051 69.3428C58.9636 68.736 59.6468 68.4316 60.1777 68.4316ZM73.5586 36.6934C71.2645 39.6139 70.7969 43.783 70.7969 47.9521C71.5554 57.0542 79.8987 63.1223 88.0146 63.8809C88.5455 64.0325 89.0765 63.8811 89.6074 64.5635C90.8209 65.9287 91.8076 67.1422 92.4902 68.2041C94.2347 70.8588 95.0693 73.2105 95.0693 75.1826C95.0693 77.1547 94.6136 78.9752 93.7793 80.7197C92.9449 82.4643 91.8071 83.9817 90.29 85.4229C88.7731 86.788 86.8014 87.9261 84.4502 88.9121C82.0989 89.8223 79.5198 90.3531 76.6377 90.5049C77.3962 89.3672 77.8506 88.153 77.8506 86.9395C77.8506 85.6502 77.6236 84.4367 77.0928 83.1475C76.5618 81.8581 75.803 80.4167 74.7412 78.9756C72.9966 76.5484 71.1004 74.1964 68.9766 71.9209C66.853 69.6456 65.4115 67.9773 64.5771 66.9912C63.7428 66.0052 62.8324 64.7155 61.7705 63.2744C59.7225 60.3921 58.7363 57.4338 58.7363 54.4756C58.7363 51.5174 59.6464 48.7863 61.4668 46.2832C62.8321 44.387 64.5012 42.7943 66.625 41.5049C67.3076 41.0498 68.0658 40.6702 68.8242 40.291C70.7501 39.8095 72.1782 37.8947 73.5586 36.6934ZM182.298 38.7744C180.781 41.8084 180.781 44.8423 180.478 47.7246C180.326 48.4073 180.249 49.0146 180.098 49.6973C177.67 61.9849 176.457 70.6322 176.457 75.5625C176.457 81.5545 179.415 84.5127 185.256 84.5127C187.531 84.5127 189.731 83.8295 191.931 82.54C194.054 81.1747 195.799 79.4304 197.089 77.3066C196.406 80.9475 194.661 84.0571 191.854 86.4844C188.821 89.139 184.649 90.5048 179.34 90.5049C169.783 90.5049 163.562 88.0771 160.452 83.2227C158.708 80.4921 157.874 77.0032 157.874 72.7559C157.874 69.9494 158.48 65.0189 159.618 57.9648C159.846 56.8272 159.998 55.6894 160.149 54.5518C160.301 53.4899 160.528 52.5036 160.756 51.5176C161.818 47.8768 161.06 44.0842 162.501 40.2158C163.259 39.6091 163.942 39.2295 164.549 39.2295H180.933C181.539 39.5325 181.539 38.7744 182.298 38.7744ZM290.158 35.7402C294.709 28.1556 299.26 37.2577 304.342 38.8506C305.176 38.8506 306.011 38.7744 306.693 38.7744H308.817C305.556 52.8827 303.204 68.053 301.763 84.2852C301.687 85.347 301.46 86.2575 301.005 86.8643C300.853 87.016 300.322 87.4707 299.487 88.1533C298.653 88.9873 298.122 89.4423 297.743 89.6699C297.288 89.8974 296.681 89.9736 295.923 89.9736H293.495C290.082 89.8978 285.986 89.7464 281.359 89.5947C283.711 79.9617 285.683 69.1902 287.124 57.1299C287.276 55.9168 287.276 56.0683 287.352 55.8408C288.641 48.635 287.124 41.8083 290.158 35.7402ZM131.554 36.499C125.486 44.084 131.554 53.1858 131.326 61.3018C131.099 62.6671 130.947 63.9573 130.795 65.3984C129.885 72.2249 129.126 79.5827 128.52 87.3193C128.519 87.6228 128.14 88.1535 127.306 88.8359C126.471 89.4427 125.788 89.7461 125.182 89.7461H107.888C111.529 76.6239 114.108 60.5431 115.625 41.6562C115.625 41.3528 116.004 40.8222 116.838 40.2158C117.672 39.6092 118.355 39.2297 118.886 39.2295H127.154C128.14 39.0777 128.368 38.5472 128.975 38.168C130.037 37.2578 130.795 37.2575 131.554 36.499ZM217.341 30.4307C221.133 27.3969 224.167 36.4987 230.159 38.7744H232.056C228.339 53.8687 225.836 70.1009 224.471 87.2432C224.471 87.6224 224.091 88.0771 223.257 88.7598C222.498 89.3666 221.74 89.7461 221.209 89.7461H216.886C214.155 89.5944 211.879 89.5941 208.77 89.6699C207.556 89.7458 206.419 89.7461 205.66 89.7461H204.446C207.025 79.5063 208.997 67.9771 210.438 55.2344C210.514 54.5523 210.363 54.4757 210.362 54.3242C216.582 49.3939 212.031 35.7402 217.341 30.4307ZM262.775 38.0156C267.326 29.6723 272.636 35.7403 277.945 39.2295H281.132C280.98 39.5322 281.735 38.7779 281.738 38.7744C281.738 41.0498 281.738 43.3252 280.979 45.6006C280.752 46.6624 280.524 47.7246 280.297 48.8623C277.945 60.8468 276.201 73.6662 275.063 87.3193C275.063 87.6228 274.684 88.1535 273.85 88.8359C273.167 89.4427 272.484 89.7461 271.953 89.7461H254.659C257.086 79.2029 259.059 67.9771 260.424 56.1445C260.575 54.9314 260.576 55.3096 260.576 55.0068C262.017 49.3939 260.5 43.3252 262.775 38.0156ZM304.452 85.6582C304.289 85.7265 304.126 85.8001 303.963 85.8779C303.053 86.3329 302.218 86.712 301.46 87.167C302.302 86.3811 303.352 85.9891 304.452 85.6582ZM315.037 38.623C317.692 38.6231 320.271 39.1533 322.622 40.291C325.049 41.3529 327.173 42.8706 328.918 44.8428C330.662 46.8148 332.103 49.2419 333.165 52.124C334.227 55.0064 334.758 58.0405 334.758 61.1504C334.758 64.2603 334.379 67.2948 333.545 70.0254C332.786 72.8317 331.572 75.4101 329.903 77.9131C328.235 80.4161 326.187 82.5403 323.836 84.4365C323.229 84.8916 322.622 85.3473 321.939 85.7266C321.257 86.1058 320.574 86.5609 319.815 86.8643C315.257 85.9147 310.806 84.1743 306.503 85.0352C307.7 84.6185 308.843 84.033 309.728 82.8438L310.638 81.0234C312.079 77.9136 313.217 74.4999 314.127 70.7832C315.189 66.3082 315.795 61.8331 315.795 57.5098C315.795 50.6832 314.43 45.2213 311.775 41.2012C311.776 40.8219 312.155 40.2908 312.989 39.6084C313.748 38.926 314.43 38.623 315.037 38.623ZM306.503 85.0352C305.825 85.2712 305.129 85.4545 304.452 85.6582C305.132 85.374 305.816 85.1727 306.503 85.0352ZM182.373 42.6426C183.89 35.0575 189.959 30.5061 197.544 31.2646C201.336 31.8715 204.598 33.6163 206.873 36.3467C207.328 36.8775 207.631 37.4847 207.783 38.0156C207.404 41.8839 209.68 44.9182 208.391 49.0898C208.011 49.9241 207.556 50.7586 207.025 51.5928C205.508 54.0199 203.308 56.1438 200.957 57.8125C200.654 58.4952 200.502 59.4059 200.274 60.2402C199.364 64.7912 198.529 68.9627 197.847 72.8311C197.771 73.2103 197.316 73.7418 196.558 74.3486C195.799 74.9552 195.117 75.2586 194.586 75.2588C194.586 70.6319 194.434 66.3837 194.131 62.667C194.055 61.9086 193.978 61.1503 193.902 60.4678C190.717 54.0206 180.098 51.7446 182.373 42.6426ZM237.593 38.6982C242.144 39.0016 245.861 40.1395 248.819 42.1875C249.426 42.5667 249.956 43.0225 250.487 43.4775C253.673 45.6014 253.673 49.3937 254.963 52.2002C255.039 52.8828 255.114 53.5658 255.114 54.3242C255.114 57.0545 254.508 59.5574 253.219 61.9844C251.929 64.3358 250.26 66.3085 248.212 67.9014C243.737 71.2387 238.579 72.9834 232.814 72.9834C231.373 72.9834 230.235 72.9072 229.325 72.6797C231.828 69.9491 233.8 66.9151 235.241 63.502C236.682 60.0887 237.365 56.4475 237.365 52.5791C237.365 48.7108 236.379 44.9178 234.331 41.2012C234.331 40.822 234.711 40.367 235.545 39.6846C236.379 39.002 237.062 38.6983 237.593 38.6982ZM134.512 34.9814C139.821 29.6722 149.681 29.6725 154.232 35.7402C161.059 44.0838 155.75 57.7366 145.131 62.2119C144.069 62.5912 143.158 62.7432 142.476 62.7432C136.028 55.4615 123.893 44.0835 134.512 34.9814ZM76.1816 35.7402C82.2497 28.9136 92.8694 30.4309 98.9375 36.499C100.072 37.6339 100.933 38.9581 101.544 40.3975C101.608 40.3376 101.675 40.2772 101.744 40.2158C102.427 39.6091 103.033 39.2296 103.488 39.2295H114.79C112.287 42.2635 110.315 45.0702 108.95 47.5732C107.585 50.1522 106.295 52.5796 105.081 55.0068C103.868 57.3578 102.882 59.1781 102.199 60.3916C102.048 60.695 101.365 61.0746 100.151 61.6055C98.7862 62.1364 97.8757 62.4394 97.3447 62.4395C97.4235 61.442 97.5296 60.3356 97.666 59.1201C96.7132 60.1012 95.6411 60.9456 94.4619 61.6055C93.4001 62.0605 92.5658 62.3639 91.959 62.5156C94.3862 52.4275 84.5252 41.0498 76.1816 35.7402ZM75.8789 34.6025C75.1963 35.0576 74.5133 35.5883 73.9824 36.3467C73.8411 36.4527 73.7004 36.5699 73.5586 36.6934C74.1861 35.8945 74.9503 35.189 75.8789 34.6025Z" fill="#383838"/>
<path d="M57.8616 138.609C59.8378 115.739 127.389 121.576 129.365 98.7069L110.671 98.214C108.694 121.083 41.1434 115.246 39.1672 138.116" fill="#74CF5D"/>
<path d="M78.5591 96.4782C61.8053 106.736 45.3016 79.7811 28.5478 90.0389L33.9078 96.9604C50.6616 86.7026 67.1652 113.657 83.919 103.4" fill="#43A4EA"/>
<path d="M358.411 58.8114C356.374 35.9473 423.91 29.9319 421.873 7.06781L403.379 9.83784C405.415 32.702 337.88 38.7173 339.916 61.5814" fill="#E9C039"/>
<path d="M399.413 44.6969C388.082 69.1638 347.075 50.173 335.744 74.6399L347.586 78.6765C358.917 54.2095 399.924 73.2004 411.255 48.7335" fill="#EA6F43"/>
</svg>
