<svg width="35" height="35" viewBox="0 0 35 35" fill="none" xmlns="http://www.w3.org/2000/svg">
<path d="M14.5834 13.8574C13.1251 12.3984 8.78133 8.42809 6.79686 8.77088C1.62338 9.66454 1.62338 25.3416 6.79686 26.2353C8.78133 26.578 13.1251 22.6078 14.5834 21.1489" stroke="#383838" stroke-width="1.5" stroke-linecap="round" stroke-linejoin="round"/>
<path d="M20.4167 13.8574C21.8751 12.3984 26.2189 8.42809 28.2032 8.77088C33.3768 9.66454 33.3768 25.3416 28.2032 26.2353C26.2189 26.578 21.8751 22.6078 20.4167 21.149" stroke="#383838" stroke-width="1.5" stroke-linecap="round" stroke-linejoin="round"/>
<path d="M13.8542 17.503C13.8542 14.4422 14.7612 13.1279 17.5001 13.1279C20.0507 13.1279 21.1459 14.2162 21.1459 17.503C21.1459 20.5638 20.239 21.878 17.5001 21.878C14.7612 21.878 13.8542 20.5638 13.8542 17.503Z" stroke="#383838" stroke-width="1.5" stroke-linecap="round" stroke-linejoin="round"/>
<path d="M13.1251 17.5029H11.6667" stroke="#383838" stroke-width="1.5" stroke-linecap="round" stroke-linejoin="round"/>
<path d="M23.3333 17.5029H21.875" stroke="#383838" stroke-width="1.5" stroke-linecap="round" stroke-linejoin="round"/>
</svg>
