<svg width="35" height="35" viewBox="0 0 35 35" fill="none" xmlns="http://www.w3.org/2000/svg">
<path d="M16.0417 12.3958H15.3125V6.84876C15.3125 6.2879 14.8578 5.83325 14.297 5.83325C14.0146 5.83325 13.745 5.95082 13.5528 6.15776L4.87117 15.5073C4.55225 15.8507 4.375 16.302 4.375 16.7708C4.375 17.2395 4.55225 17.6908 4.87117 18.0343L13.5528 27.3838C13.745 27.5907 14.0146 27.7083 14.297 27.7083C14.8578 27.7083 15.3125 27.2535 15.3125 26.6928V21.1458C23.4127 21.1458 27.7858 27.0027 28.8867 28.7068C29.0684 28.9881 29.3751 29.1666 29.7099 29.1666C30.2154 29.1666 30.625 28.7569 30.625 28.2515V26.9791C30.625 18.925 24.0958 12.3958 16.0417 12.3958Z" fill="white"/>
</svg>
