<svg width="35" height="35" viewBox="0 0 35 35" fill="none" xmlns="http://www.w3.org/2000/svg">
<path d="M19.6875 6.56258C19.6875 7.77071 18.7081 8.75008 17.5 8.75008C16.2919 8.75008 15.3125 7.77071 15.3125 6.56258C15.3125 5.35445 17.5 2.91675 17.5 2.91675C17.5 2.91675 19.6875 5.35445 19.6875 6.56258Z" stroke="#383838" stroke-width="1.5" stroke-linejoin="round"/>
<path d="M17.5 8.75V13.125" stroke="#383838" stroke-width="1.5" stroke-linecap="round" stroke-linejoin="round"/>
<path d="M25.764 20.4167C28.046 20.4167 29.8959 18.7844 29.8959 16.7708C29.8959 14.7573 28.046 13.125 25.764 13.125H9.23619C6.95419 13.125 5.10425 14.7573 5.10425 16.7708C5.10425 18.7844 6.95419 20.4167 9.23619 20.4167C11.2352 20.4167 12.9853 19.1641 13.3681 17.5C13.751 19.1641 15.5011 20.4167 17.5001 20.4167C19.499 20.4167 21.2492 19.1641 21.632 17.5C22.0149 19.1641 23.7649 20.4167 25.764 20.4167Z" stroke="#383838" stroke-width="1.5" stroke-linejoin="round"/>
<path d="M7.29175 20.4167L8.05138 24.1787C8.81617 27.9662 9.19858 29.86 10.4944 30.9717C11.7902 32.0834 13.6152 32.0834 17.2653 32.0834H17.7349C21.3849 32.0834 23.21 32.0834 24.5058 30.9717C25.8016 29.86 26.184 27.9662 26.9488 24.1787L27.7084 20.4167" stroke="#383838" stroke-width="1.5" stroke-linecap="round" stroke-linejoin="round"/>
</svg>
