<svg width="148" height="282" viewBox="0 0 148 282" fill="none" xmlns="http://www.w3.org/2000/svg">
<g clip-path="url(#clip0_479_836)" filter="url(#filter0_dddd_479_836)">
<path d="M17 139.768C17 136.243 18.0029 133.222 19.3402 130.537C19.0058 129.363 19.0059 128.188 19.0059 127.013C19.0059 125.167 19.3402 123.153 20.0088 121.139C19.173 119.125 18.8387 116.776 18.8387 114.594C18.8387 111.909 19.3402 109.392 20.5103 107.042C19.5073 104.693 19.0059 102.176 19.0059 99.6582C19.0059 97.4765 19.3402 95.2948 20.3431 92.9453C20.3431 92.7775 20.1759 92.4419 20.1759 92.2741C19.173 89.0854 18.6716 85.729 18.6716 82.5404C18.6716 77.0023 20.3431 71.7998 23.6862 67.4365C23.8534 67.2687 23.8534 67.2687 24.0205 67.1008C22.5161 65.7583 21.1789 64.2479 20.1759 62.5697C18.5044 59.7167 17.6686 56.5281 17.6686 53.1717C17.6686 50.1509 18.3372 47.2979 19.6745 44.7806C19.173 43.2702 19.0059 41.592 19.0059 39.9138L19.0059 39.4103C19.0059 37.0608 19.3402 34.7113 20.1759 32.6975C20.3431 32.194 20.6774 31.5227 20.8446 31.0192C20.6774 30.8514 20.6774 30.5158 20.8446 30.348C20.0088 28.3341 19.6745 25.9846 19.6745 23.8029C19.6745 17.5935 22.8504 11.8876 28.1994 8.69899C28.7009 8.36335 29.3695 8.02771 29.871 7.85989C31.5425 7.1886 33.2141 6.51732 35.2199 6.18167C36.0557 6.01385 37.0586 6.01385 37.8944 6.01385L43.5777 6.01385C44.7478 6.01385 45.9179 6.01385 47.2551 6.18167C48.4252 6.18167 49.261 6.3495 49.7625 6.3495C50.0968 6.3495 50.4311 6.3495 50.7654 6.3495C50.9325 6.3495 51.0997 6.18167 51.2669 6.18167C51.6012 6.01385 51.9355 5.84603 52.2698 5.84603C54.4428 5.00693 56.783 4.67128 59.1232 4.67128C66.3108 4.67128 72.3284 8.86682 75.0029 14.9084C77.8446 11.2163 81.6891 8.36335 86.2023 6.51732L86.3695 6.51732C90.2141 4.67128 94.2258 4 98.4047 4C103.587 4 108.601 5.17475 113.282 7.69207C117.795 10.0416 121.639 13.398 124.481 17.4257C127.824 22.1247 129.663 27.6628 129.663 33.2009C129.663 35.5504 129.328 37.5643 128.994 39.2425C129.496 40.9207 129.83 42.7667 129.83 44.445C129.83 46.7945 129.328 48.9761 128.66 50.99C130.164 53.6751 131 56.8637 131 60.0524C131 63.241 130.164 66.2617 128.66 68.7791C128.66 69.4503 128.827 70.2895 128.827 70.9607C128.827 71.1286 128.827 71.2964 128.827 71.4642C128.827 71.4642 128.66 74.485 128.66 74.6528C128.493 77.8414 128.326 80.8622 128.326 83.883C128.326 86.4003 127.824 88.9176 126.821 91.2671C128.66 94.9592 129.663 98.9869 129.663 103.182C129.663 107.714 128.493 111.406 127.155 114.091C127.155 116.105 126.821 117.951 126.32 119.629C127.155 121.978 127.323 124.16 127.323 125.838C127.323 126.006 127.323 126.342 127.323 126.677C127.155 130.873 125.484 134.901 122.475 137.754C119.132 141.11 114.786 142.956 110.273 142.956C107.264 142.956 104.255 142.117 101.581 140.774C101.079 141.278 100.578 141.781 100.076 142.285C96.7331 145.473 92.3871 147.152 87.8739 147.152C85.0323 147.152 82.3578 146.48 79.8504 145.138C79.5161 144.97 79.349 144.802 79.0147 144.634C78.1789 144.131 77.3431 143.46 76.5073 142.788L76.5073 144.634C76.5073 149.837 76.3402 154.536 75.8387 158.899C75.5044 162.423 75.0029 165.109 74 167.458C72.1613 172.157 68.9853 175.681 64.9736 177.863L65.1407 178.031C69.1525 181.387 71.3255 186.254 71.3255 191.457C71.3255 194.981 70.3226 198.337 68.651 201.19C68.1495 202.197 67.4809 203.036 66.8123 203.875C66.6451 204.379 66.3108 204.714 66.1437 205.218C65.6422 206.057 65.3079 206.728 65.1407 207.232C64.9736 208.071 64.8064 208.91 64.4721 209.917C62.8006 214.784 59.1232 218.644 54.4428 220.49C51.9355 221.497 49.0938 222 46.085 221.832C40.2346 221.497 34.8856 218.308 30.2053 212.602C28.0322 209.917 26.0264 206.728 24.3548 203.372C22.5161 199.848 20.6774 195.484 20.6774 190.617C20.6774 184.911 23.3519 179.709 27.6979 176.52C27.6979 175.849 27.6979 175.178 27.6979 174.507C27.6979 173.164 27.8651 171.989 28.1994 170.647C25.6921 169.472 23.6862 167.794 22.0147 165.612C19.6745 162.423 18.5044 158.899 18.5044 155.039C18.5044 153.025 18.8387 151.012 19.5073 149.166C17.8358 146.313 17 143.124 17 139.768Z" fill="#ECB3CB"/>
<path d="M86.704 29.5089C86.704 27.6629 87.2055 26.1525 88.2084 24.8099C89.2114 23.4674 90.5486 22.4604 92.3873 21.7892C94.226 21.1179 96.2319 20.7822 98.4049 20.7822C100.912 20.7822 103.252 21.4535 105.593 22.6283C107.933 23.803 109.604 25.3134 111.109 27.3273C112.446 29.3411 113.115 31.1872 113.115 33.3688C113.115 35.047 112.78 36.3896 111.944 37.3965C111.109 38.4035 110.273 38.7391 109.27 38.7391C108.601 38.7391 108.1 38.5713 107.598 38.2357C107.097 37.9 106.763 37.3965 106.428 36.7253C106.596 36.7253 106.763 36.5574 107.264 36.5574C107.598 36.5574 107.933 36.5574 108.267 36.7253C108.769 36.7253 108.936 36.7253 109.27 36.7253C109.604 36.7253 109.771 36.7253 109.939 36.5574C110.942 36.2218 111.276 35.2149 111.276 33.5367C111.276 33.0332 111.276 32.5297 111.109 31.8584C110.942 30.5159 110.273 29.0055 108.936 27.6629C107.766 26.3203 106.261 25.1456 104.422 24.3065C102.584 23.4674 100.745 22.9639 98.9064 22.9639C97.2348 22.9639 95.7304 23.2995 94.226 23.803C92.7216 24.3065 91.5515 25.1456 90.7158 26.1525C89.88 27.1594 89.3785 28.502 89.3785 29.8446C89.3785 31.6906 89.5457 33.201 90.0471 34.5436C90.5486 35.8862 91.2172 37.0609 92.053 38.2357C92.2202 38.4035 92.2202 38.5713 92.2202 38.7391C92.2202 39.0748 92.053 39.2426 91.7187 39.4104C91.0501 39.5782 90.3814 39.0748 89.7128 38.0678C89.0442 37.0609 88.3756 35.7183 87.707 34.2079C87.0383 32.5297 86.704 31.0193 86.704 29.5089ZM87.2055 61.2272C87.0383 60.5559 87.3726 60.0524 88.2084 59.8846C89.0442 59.549 90.2143 59.549 91.7187 59.3811C94.0589 59.3811 95.8976 59.2133 97.402 59.2133C98.9064 59.2133 100.411 59.0455 101.581 58.7099C100.411 56.1925 99.2407 53.6752 98.4049 51.3257C97.402 48.9762 96.9005 47.6337 97.0677 47.6337L88.5427 47.6337C88.2084 47.6337 87.8741 47.4658 87.707 46.9624C87.5398 46.2911 87.8741 45.9554 88.7099 45.6198C89.5457 45.452 91.0501 45.2842 92.8888 45.2842C94.5603 45.2842 95.7304 45.1163 96.399 45.1163C95.8976 44.2772 95.7304 43.6059 95.8976 43.1025C96.0647 42.9347 96.5662 42.9347 97.2348 42.9347C97.2348 43.1025 97.402 43.4381 97.5691 43.7738C97.7363 44.1094 97.7363 44.2772 97.9034 44.445C98.0706 44.6129 98.2377 44.6129 98.5721 44.6129C99.9093 44.6129 101.915 44.445 104.757 44.2772C107.264 43.9416 109.27 43.7738 110.942 43.7738L112.78 43.7738C112.947 43.7738 113.115 43.9416 113.115 44.1094C113.115 44.2772 113.115 44.445 113.115 44.6129C113.115 45.1163 112.947 45.2842 112.613 45.2842L98.5721 46.9624C98.7392 47.6337 99.2407 48.9762 100.076 50.6544C100.912 52.3326 102.082 55.0178 103.921 58.7099L112.78 58.8777C113.783 58.8777 114.285 59.2133 114.285 60.0524C114.285 60.3881 114.118 60.5559 113.95 60.7237C113.783 60.8915 113.282 60.8915 112.78 60.8915L105.76 60.8915C103.42 60.8915 100.411 61.0594 96.5662 61.2272C95.8976 61.2272 95.0618 61.395 94.3932 61.395C93.7246 61.395 93.0559 61.5628 92.3873 61.5628C90.7158 61.7306 89.7128 61.8985 89.2114 61.8985C88.7099 61.8985 88.3756 62.0663 88.0413 62.2341C87.707 62.0663 87.3726 61.7306 87.2055 61.2272ZM87.2055 74.6529C87.2055 72.4712 87.5398 70.793 88.3756 69.7861C89.2114 68.7791 90.7158 68.2757 92.8888 68.2757L101.915 68.7791L110.607 68.7791C111.276 68.7791 111.777 68.947 111.944 69.1148C112.112 69.4504 112.279 69.9539 112.279 70.9608L112.279 73.646C112.112 77.0024 111.944 80.3588 111.944 83.7153C111.944 84.3865 111.777 84.89 111.276 85.3935C110.942 85.8969 110.273 86.0648 109.604 86.0648C109.437 86.0648 109.437 86.0648 109.27 85.8969C109.27 85.8969 109.103 85.7291 109.27 85.5613L109.939 83.7153L109.604 71.1286C109.604 70.9608 109.604 70.793 109.604 70.793C109.27 71.1286 109.103 71.1286 108.936 71.1286L101.915 71.1286C101.915 72.3034 101.748 73.4781 101.748 74.6529C101.748 76.6668 101.915 78.8484 102.082 81.1979C102.082 81.3658 102.082 81.8692 102.082 82.2049C102.082 82.7083 102.082 83.044 102.082 83.044C101.915 83.2118 101.748 83.3796 101.581 83.3796C101.414 83.3796 101.247 83.5474 101.079 83.5474C100.411 83.5474 100.076 82.7083 99.9093 80.8623C99.7421 79.0163 99.575 76.4989 99.4078 73.4782C99.4078 72.4712 99.4078 71.6321 99.4078 70.793C98.5721 70.4574 97.402 70.2895 95.5633 70.2895L93.2231 70.2895L90.5486 70.2895C90.2143 70.793 90.0471 71.1286 89.88 71.6321C89.7128 72.1356 89.7128 72.9747 89.7128 74.1494C89.7128 75.3242 89.7128 76.4989 89.88 77.6737C90.0471 78.8484 90.0471 79.5197 90.0471 79.6875C90.3814 81.8692 90.3814 83.5474 90.3814 84.7222C90.3814 85.3935 90.3814 85.7291 90.2143 86.0648C90.0471 86.4004 89.88 86.4004 89.5457 86.4004C87.707 86.4004 86.8712 82.8761 86.8712 75.6598L86.8712 74.6529L87.2055 74.6529ZM86.704 99.4905C86.704 97.6444 87.2055 96.134 88.2084 94.7915C89.2114 93.4489 90.5486 92.442 92.3873 91.7707C94.226 91.0994 96.2319 90.7638 98.4049 90.7638C100.912 90.7638 103.252 91.435 105.593 92.6098C107.933 93.7845 109.604 95.2949 111.109 97.3088C112.446 99.3226 113.115 101.169 113.115 103.35C113.115 105.029 112.78 106.371 111.944 107.378C111.109 108.385 110.273 108.721 109.27 108.721C108.601 108.721 108.1 108.553 107.598 108.217C107.097 107.882 106.763 107.378 106.428 106.707C106.596 106.707 106.763 106.539 107.264 106.539C107.598 106.539 107.933 106.539 108.267 106.707C108.769 106.707 108.936 106.707 109.27 106.707C109.604 106.707 109.771 106.707 109.939 106.539C110.942 106.203 111.276 105.196 111.276 103.518C111.276 103.015 111.276 102.511 111.109 101.84C110.942 100.497 110.273 98.987 108.936 97.6444C107.766 96.3019 106.261 95.1271 104.422 94.288C102.584 93.4489 100.745 92.9454 98.9064 92.9454C97.2348 92.9454 95.7304 93.2811 94.226 93.7845C92.7216 94.288 91.5515 95.1271 90.7157 96.134C89.88 97.141 89.3785 98.4835 89.3785 99.8261C89.3785 101.672 89.5457 103.183 90.0471 104.525C90.5486 105.868 91.2172 107.042 92.053 108.217C92.2201 108.385 92.2201 108.553 92.2201 108.721C92.2201 109.056 92.053 109.224 91.7187 109.392C91.0501 109.56 90.3814 109.056 89.7128 108.049C89.0442 107.042 88.3756 105.7 87.707 104.189C87.0383 102.343 86.704 101.001 86.704 99.4905ZM87.0383 116.105C87.0383 115.601 87.707 115.098 89.0442 114.93C90.3814 114.762 92.5545 114.594 95.8976 114.594L98.9064 114.427C99.9093 114.427 101.414 114.259 103.587 113.923C103.921 113.923 104.59 113.755 106.094 113.587C107.598 113.42 108.601 113.252 109.771 113.252C109.939 113.252 110.106 113.252 110.44 113.42C110.774 113.587 110.774 113.755 110.774 114.091C110.774 114.427 110.607 114.594 110.273 114.762C109.939 114.93 109.604 114.93 109.27 114.93C108.936 114.93 108.769 114.93 108.769 114.93C108.267 115.098 107.766 115.266 106.93 115.266C106.094 115.266 105.258 115.434 104.422 115.434C102.751 115.601 101.414 115.601 100.745 115.769L102.584 116.944C105.091 118.622 107.264 120.3 108.769 121.643C110.273 122.985 111.109 124.496 110.942 125.838C110.774 126.006 110.774 126.006 110.607 126.006C110.273 126.006 110.106 125.838 109.604 125.671C109.103 125.503 108.769 124.999 108.267 124.496L107.431 123.657C107.097 123.321 106.094 122.482 104.422 120.972C103.252 119.965 102.417 119.126 101.581 118.454C100.745 117.783 100.076 117.28 99.4078 116.944C97.7363 118.119 96.399 119.461 95.0618 121.139C93.7245 122.818 92.3873 124.831 90.5486 127.517L89.7128 128.691C89.5457 129.195 89.2113 129.53 88.877 129.866C88.5427 130.202 88.2084 130.37 87.8741 130.37C87.707 130.37 87.5398 130.37 87.3726 130.202C87.0383 130.034 86.8712 129.866 86.8712 129.531C86.8712 129.195 87.0383 128.691 87.3726 128.02L88.877 125.838C90.3814 123.489 91.8858 121.475 93.2231 119.797C94.5603 118.119 95.8976 116.944 97.0677 116.273L94.0589 116.44C91.3844 116.608 89.3785 116.776 88.5427 116.776C87.8741 116.776 87.3726 116.776 87.2055 116.608C87.2055 116.608 87.0383 116.44 87.0383 116.105ZM51.9357 39.2426C50.7656 39.2426 49.5955 39.2426 48.5926 39.4104C47.5897 39.5782 46.0853 39.746 44.0794 40.0817C40.7363 40.5851 38.2289 40.9208 36.2231 40.9208C35.8888 40.9208 35.5545 40.9208 35.5545 40.753C35.5545 40.5851 35.3873 40.4173 35.3873 40.2495C35.3873 40.0817 35.3873 39.9139 35.3873 39.746C35.3873 39.4104 35.3873 39.0748 35.5545 38.9069C35.7216 38.7391 35.8888 38.5713 36.2231 38.4035L47.0882 37.5644C48.2583 37.5644 50.4313 37.3965 53.7744 37.2287C52.4372 36.054 51.4342 34.8792 50.7656 33.8723C50.097 32.6975 49.7627 31.5228 49.7627 30.348C49.7627 28.6698 50.9328 26.9916 53.2729 25.3134C52.9386 25.3134 52.27 25.4812 51.6014 25.4812C50.9328 25.4812 50.5985 25.4812 50.4313 25.4812L37.3932 25.4812C37.0589 25.4812 36.8917 25.3134 36.7245 24.9778C36.5574 24.6421 36.5574 24.4743 36.5574 24.1387C36.5574 23.803 36.7246 23.4674 36.8917 23.2995C37.226 23.1317 37.5603 23.1317 38.0618 22.9639L43.7451 22.9639C44.5809 22.9639 45.5838 22.9639 46.5867 22.9639C47.5897 22.9639 48.4254 23.1317 48.7597 23.1317C50.5985 23.2995 52.27 23.2995 53.7744 23.2995C54.2759 23.2995 54.6102 23.2995 55.1116 23.1317C55.6131 22.9639 55.9474 22.7961 56.4489 22.4604C56.9504 22.1248 57.4518 21.957 57.7861 21.7892C58.1204 21.6213 58.6219 21.6213 58.9562 21.6213C59.4577 21.6213 59.792 21.957 59.792 22.4604C59.792 23.2995 59.4577 23.9708 58.9562 24.4743C58.4548 24.9778 57.619 25.4812 56.4489 26.1525C55.446 26.656 54.7773 27.1594 54.2759 27.4951C53.7744 27.8307 53.2729 28.3342 52.9386 29.0055C52.6043 29.6768 52.4372 30.348 52.4372 31.1872C52.4372 32.3619 52.6043 33.3688 53.1058 34.2079C53.6073 35.047 54.2759 35.5505 55.1116 36.054C55.7803 36.3896 56.7832 36.8931 57.7861 37.2287C58.6219 37.5644 59.2905 37.9 59.6248 38.0678C59.9592 38.2356 60.1263 38.5713 60.1263 38.9069C60.1263 39.746 59.4577 40.0817 57.9533 40.0817C56.616 40.0817 55.7803 40.0817 55.1116 40.0817L51.9357 39.2426ZM58.4548 59.2133C58.6219 59.2133 58.7891 59.3811 58.7891 59.7168C58.9562 60.0524 58.9562 60.3881 58.9562 60.7237C58.9562 60.8915 58.9562 61.0594 58.7891 61.2272C58.7891 61.395 58.6219 61.395 58.4548 61.2272C57.9533 61.0594 57.1175 60.5559 55.7803 59.7168C53.7744 58.542 51.9357 57.7029 50.2641 57.0316C48.7597 56.3604 46.7539 55.8569 44.5809 55.3534C42.4078 54.85 39.7334 54.3465 36.8917 54.3465L34.5515 54.3465C34.2172 54.3465 34.0501 54.1787 33.8829 54.0109C33.7158 53.843 33.7158 53.5074 33.7158 53.1718C33.7158 52.8361 33.7158 52.6683 33.8829 52.6683C33.8829 52.6683 34.0501 52.6683 34.2172 52.6683C34.3844 52.6683 34.5515 52.6683 34.5515 52.6683C35.5545 52.6683 36.5574 52.5005 37.5603 52.5005C39.7333 52.5005 41.7392 52.6683 43.5779 53.0039C45.5838 51.3257 47.2553 50.151 48.5926 48.9762C49.9298 47.9693 51.6014 46.9624 53.2729 46.1233C54.9445 45.2842 56.9504 44.445 59.2905 43.6059C59.2905 43.6059 59.2905 43.9416 59.2905 44.445C59.2905 44.9485 59.2905 45.1163 59.2905 45.2842L56.7832 46.6267C53.9416 48.1371 51.7685 49.3119 50.097 50.3188C48.5926 51.1579 47.0882 52.3326 45.7509 53.5074C47.924 54.0109 49.7627 54.6821 51.6014 55.5213C53.2729 56.3604 55.2788 57.3673 57.2847 58.542L58.4548 59.2133ZM34.8858 82.5405C34.8858 80.6945 35.3873 79.1841 36.3902 77.8415C37.3932 76.4989 38.7304 75.492 40.5691 74.8207C42.4078 74.1494 44.4137 73.8138 46.5867 73.8138C49.0941 73.8138 51.4342 74.4851 53.7744 75.6598C56.1146 76.8346 57.7861 78.345 59.2905 80.3588C60.6278 82.3727 61.2964 84.2187 61.2964 86.4004C61.2964 88.0786 60.9621 89.4212 60.1263 90.4281C59.2905 91.435 58.4548 91.7707 57.4518 91.7707C56.7832 91.7707 56.2817 91.6029 55.7803 91.2672C55.2788 90.9316 54.9445 90.4281 54.6102 89.7568C54.7773 89.7568 54.9445 89.589 55.446 89.589C55.7803 89.589 56.1146 89.589 56.4489 89.7568C56.9504 89.7568 57.1175 89.7568 57.4518 89.7568C57.7861 89.7568 57.9533 89.7568 58.1204 89.589C59.1234 89.2534 59.4577 88.2464 59.4577 86.5682C59.4577 86.0648 59.4577 85.5613 59.2905 84.89C59.1234 83.5474 58.4548 82.037 57.1175 80.6945C55.9474 79.3519 54.443 78.1771 52.6043 77.338C50.7656 76.4989 48.9269 75.9955 47.0882 75.9955C45.4166 75.9955 43.9122 76.3311 42.4078 76.8346C40.9034 77.338 39.7334 78.1771 38.8976 79.1841C38.0618 80.191 37.5603 81.5336 37.5603 82.8761C37.5603 84.7222 37.7275 86.2326 38.2289 87.5751C38.7304 88.9177 39.399 90.0925 40.2348 91.2672C40.402 91.435 40.402 91.6029 40.402 91.7707C40.402 92.1063 40.2348 92.2741 39.9005 92.442C39.2319 92.6098 38.5633 92.1063 37.8946 91.0994C37.226 90.0925 36.5574 88.7499 35.8888 87.2395C35.2201 85.5613 34.8858 84.0509 34.8858 82.5405ZM35.3873 114.427C35.3873 114.091 35.3873 113.923 35.5545 113.755C35.7216 113.587 35.8888 113.587 36.2231 113.587C36.8917 113.587 37.7275 113.755 38.8976 113.923C40.0677 114.259 40.9034 114.427 41.7392 114.427C43.7451 114.427 45.4166 114.259 46.5867 113.923L46.5867 112.748C46.5867 111.574 46.5867 110.231 46.5867 108.385L46.5867 104.525L46.5867 99.1548L45.0823 99.1548C43.9122 99.1548 42.2407 99.3226 40.402 99.8261C39.7333 99.9939 38.8976 100.162 38.0618 100.162C37.3932 100.33 36.5574 100.33 36.0559 100.33L35.7216 100.33C35.3873 99.9939 35.3873 99.8261 35.3873 99.4905C35.3873 98.8192 36.2231 98.3157 37.8946 97.8123C39.5662 97.4766 41.5721 97.141 43.9122 97.141C44.9152 97.141 45.7509 97.141 46.7539 97.3088C46.7539 96.6375 46.921 96.3019 47.0882 96.134C47.2553 95.9662 47.5897 95.7984 47.924 95.7984C48.2583 95.7984 48.4254 95.7984 48.5926 95.9662C48.7597 96.134 48.7597 96.4697 48.7597 96.9731L49.7627 96.9731L51.6014 97.141C54.6102 97.3088 57.1175 97.6444 58.9562 97.9801C60.7949 98.3157 62.4665 99.1548 63.9709 100.33C65.4753 101.504 65.9767 103.35 65.9767 105.868C65.9767 108.721 64.4724 110.902 61.4636 112.413C58.4548 113.923 55.1116 115.098 51.4342 115.601C47.7568 116.105 44.5809 116.44 41.9064 116.44C40.9034 116.44 40.0677 116.44 39.399 116.44C38.7304 116.44 37.8946 116.273 36.7245 116.105C35.7216 115.601 35.3873 115.098 35.3873 114.427ZM48.0911 113.755C53.1058 113.252 56.9504 112.413 59.792 111.07C62.6336 109.728 63.9709 107.714 63.9709 105.196C63.9709 103.183 63.1351 101.84 61.2964 100.833C59.4577 99.9939 57.619 99.3226 55.446 99.1548C53.4401 98.987 51.0999 98.8192 48.4254 98.8192L48.0911 113.755ZM34.0501 140.607C33.8829 140.439 33.7157 140.103 33.7157 139.768C33.7157 138.425 34.8858 136.411 37.226 133.726C39.5662 131.041 41.9064 128.524 44.2465 126.51C43.5779 126.678 42.2407 126.845 40.5691 127.349C39.9005 127.517 39.2319 127.684 38.5633 127.684C37.8946 127.852 37.3932 127.852 37.0589 127.852C36.2231 127.852 35.8888 127.517 35.7216 127.013C35.3873 126.845 36.2231 126.51 38.3961 126.006C40.402 125.503 42.9093 124.831 45.5838 124.328C48.2583 123.825 50.5984 123.657 52.4372 123.657C53.4401 123.657 54.1087 123.657 54.7773 123.825C55.1116 124.16 55.1116 124.496 55.1116 124.664C55.1116 125.167 54.7773 125.503 53.9416 125.671C53.1058 125.838 51.9357 126.006 50.097 126.174L49.094 126.174C49.094 127.181 49.4284 128.691 49.7627 130.37C50.097 132.216 50.7656 133.894 51.4342 135.236C52.1028 136.747 52.9386 137.418 53.9416 137.418C54.443 137.418 55.1116 137.082 55.7803 136.243C56.4489 135.572 56.9504 134.397 57.4518 132.719C57.9533 131.209 58.1204 129.195 58.1204 127.013L58.1204 125.671C58.1204 124.16 57.7861 122.985 57.2847 122.146C56.7832 121.307 55.7803 120.804 54.1087 120.804C54.1087 120.468 54.443 119.965 54.9445 119.797C55.446 119.629 55.9474 119.293 56.2817 119.293C57.9533 119.293 58.9562 120.132 59.4577 121.643C59.9592 123.321 60.2935 125.503 60.2935 128.524C60.2935 130.034 59.9592 131.712 59.4577 133.558C58.9562 135.404 58.1204 136.747 57.1175 137.922C56.1146 139.096 54.7773 139.768 53.1058 139.768C51.9357 139.768 51.0999 139.264 50.4313 138.257C49.7627 137.25 49.094 136.076 48.7597 134.901C48.4254 133.558 47.924 132.048 47.5896 130.034C47.2553 128.524 46.921 127.349 46.7539 127.013C43.9122 129.027 41.7392 131.041 40.2348 133.055C38.7304 135.069 37.226 137.082 36.0559 139.096C35.5545 139.768 35.3873 140.271 35.053 140.607C34.8858 140.942 34.7187 141.11 34.3844 141.11C34.3844 140.942 34.2172 140.942 34.0501 140.607ZM35.3873 155.039C35.3873 154.368 35.7216 153.697 36.5574 153.529C37.3932 153.361 38.3961 153.025 39.7333 152.858L40.7363 152.69C42.9093 152.354 45.0823 152.019 47.0882 151.683C49.2612 151.515 51.7685 151.179 54.7773 151.012L57.7861 150.844C57.7861 149.166 57.7861 146.984 57.9533 143.963L57.9533 143.124C57.9533 142.788 58.1204 142.453 58.4547 142.285C58.7891 142.117 59.2905 142.117 59.792 142.117L59.792 144.97C59.792 149.669 59.6248 153.865 59.2905 157.557C58.9562 161.249 58.2876 163.263 57.1175 163.263C56.7832 163.263 56.616 163.263 56.4489 163.095C56.2817 163.095 56.2817 162.759 56.2817 162.591C56.2817 161.584 56.616 159.906 56.9504 157.557C56.9504 157.053 57.1175 156.382 57.2847 155.711C57.4518 155.039 57.4518 154.2 57.619 153.193C53.7744 153.193 47.7568 153.697 39.7333 154.872C39.399 154.872 38.7304 155.039 38.0618 155.375C37.7275 155.543 37.3932 155.711 37.0589 155.711C36.7245 155.878 36.3902 155.878 36.0559 155.878C35.7216 155.878 35.3873 155.878 35.3873 155.711C35.3873 155.543 35.2201 155.543 35.2201 155.375C35.3873 155.207 35.3873 155.039 35.3873 155.039ZM44.5808 174.674C45.4166 174.674 45.9181 175.346 46.4196 176.856C46.7539 178.367 47.0882 180.38 47.4225 183.066C47.4225 183.401 47.4225 183.737 47.4225 184.24C47.4225 185.247 47.2553 186.086 47.0882 186.758C46.921 187.261 46.5867 187.597 46.2524 187.597C45.7509 187.597 45.4166 187.261 45.4166 186.758C45.4166 186.422 45.4166 185.918 45.5838 185.415C45.7509 184.744 45.7509 184.072 45.7509 183.401C45.7509 182.394 45.5838 180.884 45.0823 178.87C44.9152 177.863 44.748 177.024 44.5808 176.353C44.4137 175.681 44.5808 175.346 44.5808 174.674ZM37.7275 190.953C37.7275 190.617 37.8946 190.282 38.0618 190.114C38.2289 189.946 38.5633 189.946 39.0647 189.946C39.399 190.114 39.7333 190.45 40.2348 191.121C40.7363 191.792 41.2377 192.799 41.9064 194.31C42.9093 196.323 43.7451 198.002 44.5808 199.344C45.4166 200.687 46.2524 201.694 47.2553 202.365C48.2583 199.344 49.2612 196.659 50.4313 194.477C51.6014 192.296 52.6043 191.121 53.6072 190.785C53.6072 190.785 53.7744 190.785 53.9416 190.785C54.2759 190.785 54.443 190.785 54.6102 190.953C54.7773 191.121 54.7773 191.289 54.7773 191.624C54.7773 192.128 54.6102 192.464 54.443 192.799C54.2759 193.135 53.9416 193.47 53.6072 193.806C53.1058 194.477 52.6043 194.981 52.4372 195.316C52.27 195.82 51.7685 196.659 51.2671 197.666C50.5984 199.176 49.9298 200.351 49.4284 201.358C48.9269 202.365 48.7597 203.372 48.5926 204.379C48.4254 204.714 48.2583 205.05 48.0911 205.05C47.924 205.218 47.5896 205.218 47.2553 205.218C46.2524 205.218 44.9152 204.211 43.4108 202.197C41.9064 200.351 40.5691 198.169 39.2319 195.82C38.3961 193.47 37.7275 191.792 37.7275 190.953Z" fill="#383838"/>
</g>
<defs>
<filter id="filter0_dddd_479_836" x="-2.86102e-05" y="0.599994" width="148" height="280.9" filterUnits="userSpaceOnUse" color-interpolation-filters="sRGB">
<feFlood flood-opacity="0" result="BackgroundImageFix"/>
<feColorMatrix in="SourceAlpha" type="matrix" values="0 0 0 0 0 0 0 0 0 0 0 0 0 0 0 0 0 0 127 0" result="hardAlpha"/>
<feOffset dy="2.55"/>
<feGaussianBlur stdDeviation="2.975"/>
<feColorMatrix type="matrix" values="0 0 0 0 0 0 0 0 0 0 0 0 0 0 0 0 0 0 0.1 0"/>
<feBlend mode="normal" in2="BackgroundImageFix" result="effect1_dropShadow_479_836"/>
<feColorMatrix in="SourceAlpha" type="matrix" values="0 0 0 0 0 0 0 0 0 0 0 0 0 0 0 0 0 0 127 0" result="hardAlpha"/>
<feOffset dy="10.4834"/>
<feGaussianBlur stdDeviation="5.24168"/>
<feColorMatrix type="matrix" values="0 0 0 0 0 0 0 0 0 0 0 0 0 0 0 0 0 0 0.09 0"/>
<feBlend mode="normal" in2="effect1_dropShadow_479_836" result="effect2_dropShadow_479_836"/>
<feColorMatrix in="SourceAlpha" type="matrix" values="0 0 0 0 0 0 0 0 0 0 0 0 0 0 0 0 0 0 127 0" result="hardAlpha"/>
<feOffset dy="23.8"/>
<feGaussianBlur stdDeviation="7.22501"/>
<feColorMatrix type="matrix" values="0 0 0 0 0 0 0 0 0 0 0 0 0 0 0 0 0 0 0.05 0"/>
<feBlend mode="normal" in2="effect2_dropShadow_479_836" result="effect3_dropShadow_479_836"/>
<feColorMatrix in="SourceAlpha" type="matrix" values="0 0 0 0 0 0 0 0 0 0 0 0 0 0 0 0 0 0 127 0" result="hardAlpha"/>
<feOffset dy="42.5001"/>
<feGaussianBlur stdDeviation="8.50001"/>
<feColorMatrix type="matrix" values="0 0 0 0 0 0 0 0 0 0 0 0 0 0 0 0 0 0 0.02 0"/>
<feBlend mode="normal" in2="effect3_dropShadow_479_836" result="effect4_dropShadow_479_836"/>
<feBlend mode="normal" in="SourceGraphic" in2="effect4_dropShadow_479_836" result="shape"/>
</filter>
<clipPath id="clip0_479_836">
<rect width="218" height="114" fill="white" transform="translate(131 4) rotate(90)"/>
</clipPath>
</defs>
</svg>
