<?xml version="1.0" encoding="utf-8"?>
<!-- Generator: Adobe Illustrator 25.2.1, SVG Export Plug-In . SVG Version: 6.00 Build 0)  -->
<svg version="1.1" id="圖層_1" xmlns="http://www.w3.org/2000/svg" xmlns:xlink="http://www.w3.org/1999/xlink" x="0px" y="0px"
	 viewBox="0 0 122.5 226" style="enable-background:new 0 0 122.5 226;" xml:space="preserve">
<style type="text/css">
	.st0{clip-path:url(#SVGID_2_);}
	.st1{fill:#ECB3CB;}
	.st2{fill:#383838;}
</style>
<g>
	<defs>
		<rect id="SVGID_1_" x="2.5" y="4.6" width="114" height="218"/>
	</defs>
	<clipPath id="SVGID_2_">
		<use xlink:href="#SVGID_1_"  style="overflow:visible;"/>
	</clipPath>
	<g class="st0">
		<path class="st1" d="M2.5,140.3c0-3.5,1-6.5,2.3-9.2c-0.3-1.2-0.3-2.3-0.3-3.5c0-1.8,0.3-3.9,1-5.9c-0.8-2-1.2-4.4-1.2-6.5
			c0-2.7,0.5-5.2,1.7-7.6c-1-2.3-1.5-4.9-1.5-7.4c0-2.2,0.3-4.4,1.3-6.7c0-0.2-0.2-0.5-0.2-0.7c-1-3.2-1.5-6.5-1.5-9.7
			c0-5.5,1.7-10.7,5-15.1c0.2-0.2,0.2-0.2,0.3-0.3c-1.5-1.3-2.8-2.9-3.8-4.5c-1.7-2.9-2.5-6-2.5-9.4c0-3,0.7-5.9,2-8.4
			c-0.5-1.5-0.7-3.2-0.7-4.9V40c0-2.3,0.3-4.7,1.2-6.7c0.2-0.5,0.5-1.2,0.7-1.7c-0.2-0.2-0.2-0.5,0-0.7c-0.8-2-1.2-4.4-1.2-6.5
			c0-6.2,3.2-11.9,8.5-15.1c0.5-0.3,1.2-0.7,1.7-0.8c1.7-0.7,3.3-1.3,5.3-1.7c0.8-0.2,1.8-0.2,2.7-0.2h5.7c1.2,0,2.3,0,3.7,0.2
			c1.2,0,2,0.2,2.5,0.2c0.3,0,0.7,0,1,0c0.2,0,0.3-0.2,0.5-0.2c0.3-0.2,0.7-0.3,1-0.3c2.2-0.8,4.5-1.2,6.9-1.2
			c7.2,0,13.2,4.2,15.9,10.2c2.8-3.7,6.7-6.5,11.2-8.4h0.2c3.8-1.8,7.9-2.5,12-2.5c5.2,0,10.2,1.2,14.9,3.7
			c4.5,2.3,8.4,5.7,11.2,9.7c3.3,4.7,5.2,10.2,5.2,15.8c0,2.3-0.3,4.4-0.7,6c0.5,1.7,0.8,3.5,0.8,5.2c0,2.3-0.5,4.5-1.2,6.5
			c1.5,2.7,2.3,5.9,2.3,9.1c0,3.2-0.8,6.2-2.3,8.7c0,0.7,0.2,1.5,0.2,2.2c0,0.2,0,0.3,0,0.5c0,0-0.2,3-0.2,3.2
			c-0.2,3.2-0.3,6.2-0.3,9.2c0,2.5-0.5,5-1.5,7.4c1.8,3.7,2.8,7.7,2.8,11.9c0,4.5-1.2,8.2-2.5,10.9c0,2-0.3,3.9-0.8,5.5
			c0.8,2.3,1,4.5,1,6.2c0,0.2,0,0.5,0,0.8c-0.2,4.2-1.8,8.2-4.8,11.1c-3.3,3.4-7.7,5.2-12.2,5.2c-3,0-6-0.8-8.7-2.2
			c-0.5,0.5-1,1-1.5,1.5c-3.3,3.2-7.7,4.9-12.2,4.9c-2.8,0-5.5-0.7-8-2c-0.3-0.2-0.5-0.3-0.8-0.5c-0.8-0.5-1.7-1.2-2.5-1.8v1.8
			c0,5.2-0.2,9.9-0.7,14.3c-0.3,3.5-0.8,6.2-1.8,8.6c-1.8,4.7-5,8.2-9,10.4l0.2,0.2c4,3.4,6.2,8.2,6.2,13.4c0,3.5-1,6.9-2.7,9.7
			c-0.5,1-1.2,1.8-1.8,2.7c-0.2,0.5-0.5,0.8-0.7,1.3c-0.5,0.8-0.8,1.5-1,2c-0.2,0.8-0.3,1.7-0.7,2.7c-1.7,4.9-5.3,8.7-10,10.6
			c-2.5,1-5.3,1.5-8.4,1.3c-5.9-0.3-11.2-3.5-15.9-9.2c-2.2-2.7-4.2-5.9-5.9-9.2c-1.8-3.5-3.7-7.9-3.7-12.8c0-5.7,2.7-10.9,7-14.1
			c0-0.7,0-1.3,0-2c0-1.3,0.2-2.5,0.5-3.9c-2.5-1.2-4.5-2.9-6.2-5C5.2,163,4,159.5,4,155.6c0-2,0.3-4,1-5.9
			C3.4,146.9,2.5,143.7,2.5,140.3z"/>
		<path class="st2" d="M72.2,30.1c0-1.8,0.5-3.4,1.5-4.7c1-1.3,2.3-2.3,4.2-3c1.8-0.7,3.8-1,6-1c2.5,0,4.8,0.7,7.2,1.8
			c2.3,1.2,4,2.7,5.5,4.7c1.3,2,2,3.9,2,6c0,1.7-0.3,3-1.2,4c-0.8,1-1.7,1.3-2.7,1.3c-0.7,0-1.2-0.2-1.7-0.5
			c-0.5-0.3-0.8-0.8-1.2-1.5c0.2,0,0.3-0.2,0.8-0.2c0.3,0,0.7,0,1,0.2c0.5,0,0.7,0,1,0s0.5,0,0.7-0.2c1-0.3,1.3-1.3,1.3-3
			c0-0.5,0-1-0.2-1.7c-0.2-1.3-0.8-2.9-2.2-4.2c-1.2-1.3-2.7-2.5-4.5-3.4c-1.8-0.8-3.7-1.3-5.5-1.3c-1.7,0-3.2,0.3-4.7,0.8
			c-1.5,0.5-2.7,1.3-3.5,2.3c-0.8,1-1.3,2.3-1.3,3.7c0,1.8,0.2,3.4,0.7,4.7c0.5,1.3,1.2,2.5,2,3.7c0.2,0.2,0.2,0.3,0.2,0.5
			c0,0.3-0.2,0.5-0.5,0.7c-0.7,0.2-1.3-0.3-2-1.3c-0.7-1-1.3-2.3-2-3.9C72.6,33.1,72.2,31.6,72.2,30.1z M72.7,61.8
			c-0.2-0.7,0.2-1.2,1-1.3c0.8-0.3,2-0.3,3.5-0.5c2.3,0,4.2-0.2,5.7-0.2s3-0.2,4.2-0.5c-1.2-2.5-2.3-5-3.2-7.4
			c-1-2.3-1.5-3.7-1.3-3.7h-8.5c-0.3,0-0.7-0.2-0.8-0.7c-0.2-0.7,0.2-1,1-1.3c0.8-0.2,2.3-0.3,4.2-0.3c1.7,0,2.8-0.2,3.5-0.2
			c-0.5-0.8-0.7-1.5-0.5-2c0.2-0.2,0.7-0.2,1.3-0.2c0,0.2,0.2,0.5,0.3,0.8c0.2,0.3,0.2,0.5,0.3,0.7c0.2,0.2,0.3,0.2,0.7,0.2
			c1.3,0,3.3-0.2,6.2-0.3c2.5-0.3,4.5-0.5,6.2-0.5h1.8c0.2,0,0.3,0.2,0.3,0.3c0,0.2,0,0.3,0,0.5c0,0.5-0.2,0.7-0.5,0.7l-14,1.7
			c0.2,0.7,0.7,2,1.5,3.7c0.8,1.7,2,4.4,3.8,8.1l8.9,0.2c1,0,1.5,0.3,1.5,1.2c0,0.3-0.2,0.5-0.3,0.7c-0.2,0.2-0.7,0.2-1.2,0.2h-7
			c-2.3,0-5.3,0.2-9.2,0.3c-0.7,0-1.5,0.2-2.2,0.2c-0.7,0-1.3,0.2-2,0.2c-1.7,0.2-2.7,0.3-3.2,0.3c-0.5,0-0.8,0.2-1.2,0.3
			C73.2,62.6,72.9,62.3,72.7,61.8z M72.7,75.2c0-2.2,0.3-3.9,1.2-4.9c0.8-1,2.3-1.5,4.5-1.5l9,0.5h8.7c0.7,0,1.2,0.2,1.3,0.3
			c0.2,0.3,0.3,0.8,0.3,1.8v2.7c-0.2,3.4-0.3,6.7-0.3,10.1c0,0.7-0.2,1.2-0.7,1.7c-0.3,0.5-1,0.7-1.7,0.7c-0.2,0-0.2,0-0.3-0.2
			c0,0-0.2-0.2,0-0.3l0.7-1.8l-0.3-12.6c0-0.2,0-0.3,0-0.3c-0.3,0.3-0.5,0.3-0.7,0.3h-7c0,1.2-0.2,2.3-0.2,3.5c0,2,0.2,4.2,0.3,6.5
			c0,0.2,0,0.7,0,1c0,0.5,0,0.8,0,0.8c-0.2,0.2-0.3,0.3-0.5,0.3s-0.3,0.2-0.5,0.2c-0.7,0-1-0.8-1.2-2.7c-0.2-1.8-0.3-4.4-0.5-7.4
			c0-1,0-1.8,0-2.7c-0.8-0.3-2-0.5-3.8-0.5h-2.3h-2.7c-0.3,0.5-0.5,0.8-0.7,1.3c-0.2,0.5-0.2,1.3-0.2,2.5c0,1.2,0,2.3,0.2,3.5
			c0.2,1.2,0.2,1.8,0.2,2c0.3,2.2,0.3,3.9,0.3,5c0,0.7,0,1-0.2,1.3C75.6,87,75.4,87,75.1,87c-1.8,0-2.7-3.5-2.7-10.7v-1H72.7z
			 M72.2,100.1c0-1.8,0.5-3.4,1.5-4.7c1-1.3,2.3-2.3,4.2-3c1.8-0.7,3.8-1,6-1c2.5,0,4.8,0.7,7.2,1.8c2.3,1.2,4,2.7,5.5,4.7
			c1.3,2,2,3.9,2,6c0,1.7-0.3,3-1.2,4c-0.8,1-1.7,1.3-2.7,1.3c-0.7,0-1.2-0.2-1.7-0.5c-0.5-0.3-0.8-0.8-1.2-1.5
			c0.2,0,0.3-0.2,0.8-0.2c0.3,0,0.7,0,1,0.2c0.5,0,0.7,0,1,0s0.5,0,0.7-0.2c1-0.3,1.3-1.3,1.3-3c0-0.5,0-1-0.2-1.7
			c-0.2-1.3-0.8-2.9-2.2-4.2c-1.2-1.3-2.7-2.5-4.5-3.4c-1.8-0.8-3.7-1.3-5.5-1.3c-1.7,0-3.2,0.3-4.7,0.8c-1.5,0.5-2.7,1.3-3.5,2.3
			c-0.8,1-1.3,2.3-1.3,3.7c0,1.8,0.2,3.4,0.7,4.7c0.5,1.3,1.2,2.5,2,3.7c0.2,0.2,0.2,0.3,0.2,0.5c0,0.3-0.2,0.5-0.5,0.7
			c-0.7,0.2-1.3-0.3-2-1.3c-0.7-1-1.3-2.3-2-3.9C72.6,102.9,72.2,101.6,72.2,100.1z M72.6,116.7c0-0.5,0.7-1,2-1.2
			c1.3-0.2,3.5-0.3,6.9-0.3l3-0.2c1,0,2.5-0.2,4.7-0.5c0.3,0,1-0.2,2.5-0.3c1.5-0.2,2.5-0.3,3.7-0.3c0.2,0,0.3,0,0.7,0.2
			c0.3,0.2,0.3,0.3,0.3,0.7c0,0.3-0.2,0.5-0.5,0.7s-0.7,0.2-1,0.2s-0.5,0-0.5,0c-0.5,0.2-1,0.3-1.8,0.3s-1.7,0.2-2.5,0.2
			c-1.7,0.2-3,0.2-3.7,0.3l1.8,1.2c2.5,1.7,4.7,3.4,6.2,4.7c1.5,1.3,2.3,2.9,2.2,4.2c-0.2,0.2-0.2,0.2-0.3,0.2c-0.3,0-0.5-0.2-1-0.3
			c-0.5-0.2-0.8-0.7-1.3-1.2l-0.8-0.8c-0.3-0.3-1.3-1.2-3-2.7c-1.2-1-2-1.8-2.8-2.5c-0.8-0.7-1.5-1.2-2.2-1.5
			c-1.7,1.2-3,2.5-4.3,4.2c-1.3,1.7-2.7,3.7-4.5,6.4l-0.8,1.2c-0.2,0.5-0.5,0.8-0.8,1.2c-0.3,0.3-0.7,0.5-1,0.5
			c-0.2,0-0.3,0-0.5-0.2c-0.3-0.2-0.5-0.3-0.5-0.7c0-0.3,0.2-0.8,0.5-1.5l1.5-2.2c1.5-2.3,3-4.4,4.3-6c1.3-1.7,2.7-2.9,3.8-3.5
			l-3,0.2c-2.7,0.2-4.7,0.3-5.5,0.3c-0.7,0-1.2,0-1.3-0.2C72.7,117.2,72.6,117,72.6,116.7z M37.5,39.8c-1.2,0-2.3,0-3.3,0.2
			c-1,0.2-2.5,0.3-4.5,0.7c-3.3,0.5-5.9,0.8-7.9,0.8c-0.3,0-0.7,0-0.7-0.2c0-0.2-0.2-0.3-0.2-0.5s0-0.3,0-0.5c0-0.3,0-0.7,0.2-0.8
			c0.2-0.2,0.3-0.3,0.7-0.5l10.9-0.8c1.2,0,3.3-0.2,6.7-0.3c-1.3-1.2-2.3-2.3-3-3.4c-0.7-1.2-1-2.3-1-3.5c0-1.7,1.2-3.4,3.5-5
			c-0.3,0-1,0.2-1.7,0.2c-0.7,0-1,0-1.2,0h-13c-0.3,0-0.5-0.2-0.7-0.5c-0.2-0.3-0.2-0.5-0.2-0.8c0-0.3,0.2-0.7,0.3-0.8
			c0.3-0.2,0.7-0.2,1.2-0.3h5.7c0.8,0,1.8,0,2.8,0c1,0,1.8,0.2,2.2,0.2c1.8,0.2,3.5,0.2,5,0.2c0.5,0,0.8,0,1.3-0.2
			c0.5-0.2,0.8-0.3,1.3-0.7c0.5-0.3,1-0.5,1.3-0.7c0.3-0.2,0.8-0.2,1.2-0.2c0.5,0,0.8,0.3,0.8,0.8c0,0.8-0.3,1.5-0.8,2
			c-0.5,0.5-1.3,1-2.5,1.7c-1,0.5-1.7,1-2.2,1.3c-0.5,0.3-1,0.8-1.3,1.5c-0.3,0.7-0.5,1.3-0.5,2.2c0,1.2,0.2,2.2,0.7,3
			s1.2,1.3,2,1.8c0.7,0.3,1.7,0.8,2.7,1.2c0.8,0.3,1.5,0.7,1.8,0.8c0.3,0.2,0.5,0.5,0.5,0.8c0,0.8-0.7,1.2-2.2,1.2
			c-1.3,0-2.2,0-2.8,0L37.5,39.8z M44,59.8c0.2,0,0.3,0.2,0.3,0.5c0.2,0.3,0.2,0.7,0.2,1c0,0.2,0,0.3-0.2,0.5c0,0.2-0.2,0.2-0.3,0
			c-0.5-0.2-1.3-0.7-2.7-1.5c-2-1.2-3.8-2-5.5-2.7c-1.5-0.7-3.5-1.2-5.7-1.7c-2.2-0.5-4.8-1-7.7-1h-2.3c-0.3,0-0.5-0.2-0.7-0.3
			c-0.2-0.2-0.2-0.5-0.2-0.8c0-0.3,0-0.5,0.2-0.5c0,0,0.2,0,0.3,0c0.2,0,0.3,0,0.3,0c1,0,2-0.2,3-0.2c2.2,0,4.2,0.2,6,0.5
			c2-1.7,3.7-2.9,5-4c1.3-1,3-2,4.7-2.9c1.7-0.8,3.7-1.7,6-2.5c0,0,0,0.3,0,0.8c0,0.5,0,0.7,0,0.8l-2.5,1.3c-2.8,1.5-5,2.7-6.7,3.7
			c-1.5,0.8-3,2-4.3,3.2c2.2,0.5,4,1.2,5.9,2c1.7,0.8,3.7,1.8,5.7,3L44,59.8z M20.4,83.1c0-1.8,0.5-3.4,1.5-4.7c1-1.3,2.3-2.3,4.2-3
			c1.8-0.7,3.8-1,6-1c2.5,0,4.8,0.7,7.2,1.8c2.3,1.2,4,2.7,5.5,4.7c1.3,2,2,3.9,2,6c0,1.7-0.3,3-1.2,4S44,92.3,43,92.3
			c-0.7,0-1.2-0.2-1.7-0.5c-0.5-0.3-0.8-0.8-1.2-1.5c0.2,0,0.3-0.2,0.8-0.2c0.3,0,0.7,0,1,0.2c0.5,0,0.7,0,1,0c0.3,0,0.5,0,0.7-0.2
			c1-0.3,1.3-1.3,1.3-3c0-0.5,0-1-0.2-1.7c-0.2-1.3-0.8-2.9-2.2-4.2c-1.2-1.3-2.7-2.5-4.5-3.4c-1.8-0.8-3.7-1.3-5.5-1.3
			c-1.7,0-3.2,0.3-4.7,0.8c-1.5,0.5-2.7,1.3-3.5,2.3c-0.8,1-1.3,2.3-1.3,3.7c0,1.8,0.2,3.4,0.7,4.7c0.5,1.3,1.2,2.5,2,3.7
			c0.2,0.2,0.2,0.3,0.2,0.5c0,0.3-0.2,0.5-0.5,0.7c-0.7,0.2-1.3-0.3-2-1.3c-0.7-1-1.3-2.3-2-3.9C20.7,86.1,20.4,84.6,20.4,83.1z
			 M20.9,115c0-0.3,0-0.5,0.2-0.7c0.2-0.2,0.3-0.2,0.7-0.2c0.7,0,1.5,0.2,2.7,0.3c1.2,0.3,2,0.5,2.8,0.5c2,0,3.7-0.2,4.8-0.5v-1.2
			c0-1.2,0-2.5,0-4.4v-3.9v-5.4h-1.5c-1.2,0-2.8,0.2-4.7,0.7c-0.7,0.2-1.5,0.3-2.3,0.3c-0.7,0.2-1.5,0.2-2,0.2h-0.3
			c-0.3-0.3-0.3-0.5-0.3-0.8c0-0.7,0.8-1.2,2.5-1.7c1.7-0.3,3.7-0.7,6-0.7c1,0,1.8,0,2.8,0.2c0-0.7,0.2-1,0.3-1.2
			c0.2-0.2,0.5-0.3,0.8-0.3c0.3,0,0.5,0,0.7,0.2c0.2,0.2,0.2,0.5,0.2,1h1l1.8,0.2c3,0.2,5.5,0.5,7.4,0.8c1.8,0.3,3.5,1.2,5,2.3
			c1.5,1.2,2,3,2,5.5c0,2.9-1.5,5-4.5,6.5c-3,1.5-6.4,2.7-10,3.2c-3.7,0.5-6.9,0.8-9.5,0.8c-1,0-1.8,0-2.5,0c-0.7,0-1.5-0.2-2.7-0.3
			C21.2,116.2,20.9,115.7,20.9,115z M33.6,114.3c5-0.5,8.9-1.3,11.7-2.7c2.8-1.3,4.2-3.4,4.2-5.9c0-2-0.8-3.4-2.7-4.4
			c-1.8-0.8-3.7-1.5-5.9-1.7c-2-0.2-4.3-0.3-7-0.3L33.6,114.3z M19.6,141.2c-0.2-0.2-0.3-0.5-0.3-0.8c0-1.3,1.2-3.4,3.5-6
			c2.3-2.7,4.7-5.2,7-7.2c-0.7,0.2-2,0.3-3.7,0.8c-0.7,0.2-1.3,0.3-2,0.3c-0.7,0.2-1.2,0.2-1.5,0.2c-0.8,0-1.2-0.3-1.3-0.8
			c-0.3-0.2,0.5-0.5,2.7-1c2-0.5,4.5-1.2,7.2-1.7c2.7-0.5,5-0.7,6.9-0.7c1,0,1.7,0,2.3,0.2c0.3,0.3,0.3,0.7,0.3,0.8
			c0,0.5-0.3,0.8-1.2,1c-0.8,0.2-2,0.3-3.8,0.5h-1c0,1,0.3,2.5,0.7,4.2c0.3,1.8,1,3.5,1.7,4.9c0.7,1.5,1.5,2.2,2.5,2.2
			c0.5,0,1.2-0.3,1.8-1.2c0.7-0.7,1.2-1.8,1.7-3.5c0.5-1.5,0.7-3.5,0.7-5.7v-1.3c0-1.5-0.3-2.7-0.8-3.5c-0.5-0.8-1.5-1.3-3.2-1.3
			c0-0.3,0.3-0.8,0.8-1s1-0.5,1.3-0.5c1.7,0,2.7,0.8,3.2,2.3c0.5,1.7,0.8,3.9,0.8,6.9c0,1.5-0.3,3.2-0.8,5c-0.5,1.8-1.3,3.2-2.3,4.4
			c-1,1.2-2.3,1.8-4,1.8c-1.2,0-2-0.5-2.7-1.5c-0.7-1-1.3-2.2-1.7-3.4c-0.3-1.3-0.8-2.9-1.2-4.9c-0.3-1.5-0.7-2.7-0.8-3
			c-2.8,2-5,4-6.5,6c-1.5,2-3,4-4.2,6c-0.5,0.7-0.7,1.2-1,1.5c-0.2,0.3-0.3,0.5-0.7,0.5C19.9,141.5,19.7,141.5,19.6,141.2z
			 M20.9,155.6c0-0.7,0.3-1.3,1.2-1.5c0.8-0.2,1.8-0.5,3.2-0.7l1-0.2c2.2-0.3,4.3-0.7,6.4-1c2.2-0.2,4.7-0.5,7.7-0.7l3-0.2
			c0-1.7,0-3.9,0.2-6.9v-0.8c0-0.3,0.2-0.7,0.5-0.8c0.3-0.2,0.8-0.2,1.3-0.2v2.9c0,4.7-0.2,8.9-0.5,12.6c-0.3,3.7-1,5.7-2.2,5.7
			c-0.3,0-0.5,0-0.7-0.2c-0.2,0-0.2-0.3-0.2-0.5c0-1,0.3-2.7,0.7-5c0-0.5,0.2-1.2,0.3-1.8c0.2-0.7,0.2-1.5,0.3-2.5
			c-3.8,0-9.9,0.5-17.9,1.7c-0.3,0-1,0.2-1.7,0.5c-0.3,0.2-0.7,0.3-1,0.3c-0.3,0.2-0.7,0.2-1,0.2s-0.7,0-0.7-0.2
			c0-0.2-0.2-0.2-0.2-0.3C20.9,155.8,20.9,155.6,20.9,155.6z M30.1,175.2c0.8,0,1.3,0.7,1.8,2.2c0.3,1.5,0.7,3.5,1,6.2
			c0,0.3,0,0.7,0,1.2c0,1-0.2,1.8-0.3,2.5c-0.2,0.5-0.5,0.8-0.8,0.8c-0.5,0-0.8-0.3-0.8-0.8c0-0.3,0-0.8,0.2-1.3
			c0.2-0.7,0.2-1.3,0.2-2c0-1-0.2-2.5-0.7-4.5c-0.2-1-0.3-1.8-0.5-2.5C29.9,176.3,30.1,175.9,30.1,175.2z M23.2,191.5
			c0-0.3,0.2-0.7,0.3-0.8c0.2-0.2,0.5-0.2,1-0.2c0.3,0.2,0.7,0.5,1.2,1.2c0.5,0.7,1,1.7,1.7,3.2c1,2,1.8,3.7,2.7,5
			c0.8,1.3,1.7,2.4,2.7,3c1-3,2-5.7,3.2-7.9c1.2-2.2,2.2-3.4,3.2-3.7c0,0,0.2,0,0.3,0c0.3,0,0.5,0,0.7,0.2c0.2,0.2,0.2,0.3,0.2,0.7
			c0,0.5-0.2,0.8-0.3,1.2c-0.2,0.3-0.5,0.7-0.8,1c-0.5,0.7-1,1.2-1.2,1.5c-0.2,0.5-0.7,1.3-1.2,2.4c-0.7,1.5-1.3,2.7-1.8,3.7
			c-0.5,1-0.7,2-0.8,3c-0.2,0.3-0.3,0.7-0.5,0.7c-0.2,0.2-0.5,0.2-0.8,0.2c-1,0-2.3-1-3.8-3c-1.5-1.8-2.8-4-4.2-6.4
			C23.9,194,23.2,192.4,23.2,191.5z"/>
	</g>
</g>
</svg>
