<svg width="25" height="25" viewBox="0 0 25 25" fill="none" xmlns="http://www.w3.org/2000/svg">
<path d="M7.32603 5.00123L6.32602 5.78212C4.80937 6.96646 4.05103 7.55864 3.64429 8.3936C3.23755 9.22856 3.23755 10.1931 3.23755 12.1222V14.2143C3.23755 18.0006 3.23755 19.8938 4.40912 21.0701C5.35221 22.0169 6.75798 22.2016 9.23755 22.2376V18.2433C9.23755 17.3114 9.23755 16.8454 9.38979 16.4779C9.59278 15.9878 9.98213 15.5985 10.4721 15.3955C10.8397 15.2433 11.3056 15.2433 12.2375 15.2433C13.1694 15.2433 13.6353 15.2433 14.0029 15.3955C14.4929 15.5985 14.8823 15.9878 15.0853 16.4779C15.2375 16.8454 15.2375 17.3114 15.2375 18.2433V22.2376C17.7171 22.2016 19.1228 22.0169 20.0659 21.0701C21.2375 19.8938 21.2375 18.0006 21.2375 14.2143V12.1222C21.2375 10.1931 21.2375 9.22856 20.8308 8.3936C20.424 7.55864 19.6657 6.96646 18.149 5.78212L17.149 5.00123C14.7896 3.1588 13.6099 2.23759 12.2375 2.23759C10.8651 2.23759 9.68542 3.1588 7.32603 5.00123Z" stroke="#FFFAFA" stroke-width="1.5" stroke-linejoin="round"/>
</svg>
