<svg width="35" height="35" viewBox="0 0 35 35" fill="none" xmlns="http://www.w3.org/2000/svg">
<path d="M22.118 1.45801L22.99 3.0881C23.5796 4.19014 23.8743 4.74117 23.6795 4.97716C23.4845 5.21315 22.8425 5.02256 21.5586 4.64138C20.275 4.26027 18.9122 4.05523 17.4999 4.05523C9.84847 4.05523 3.64575 10.0745 3.64575 17.4997C3.64575 19.9484 4.32041 22.2444 5.49919 24.2219M12.8819 33.5414L12.0098 31.9113C11.4202 30.8092 11.1255 30.2581 11.3204 30.0222C11.5153 29.7862 12.1573 29.9768 13.4412 30.358C14.7249 30.7391 16.0877 30.9441 17.4999 30.9441C25.1514 30.9441 31.3541 24.9248 31.3541 17.4997C31.3541 15.0509 30.6795 12.7549 29.5007 10.7774" stroke="#FFFAFA" stroke-width="2" stroke-linecap="round" stroke-linejoin="round"/>
</svg>
