<svg width="35" height="35" viewBox="0 0 35 35" fill="none" xmlns="http://www.w3.org/2000/svg">
<path d="M8.75 26.2128C8.93769 28.1209 9.36186 29.4053 10.3205 30.3638C12.0399 32.0833 14.8073 32.0833 20.3421 32.0833C25.877 32.0833 28.6444 32.0833 30.3638 30.3638C32.0833 28.6444 32.0833 25.877 32.0833 20.3421C32.0833 14.8073 32.0833 12.0399 30.3638 10.3205C29.4053 9.36186 28.1209 8.93769 26.2128 8.75" stroke="#383838" stroke-width="1.5"/>
<path d="M2.91675 14.5834C2.91675 9.08369 2.91675 6.33384 4.62529 4.62529C6.33384 2.91675 9.08369 2.91675 14.5834 2.91675C20.0831 2.91675 22.8331 2.91675 24.5415 4.62529C26.2501 6.33384 26.2501 9.08369 26.2501 14.5834C26.2501 20.0831 26.2501 22.8331 24.5415 24.5415C22.8331 26.2501 20.0831 26.2501 14.5834 26.2501C9.08369 26.2501 6.33384 26.2501 4.62529 24.5415C2.91675 22.8331 2.91675 20.0831 2.91675 14.5834Z" stroke="#383838" stroke-width="1.5"/>
<path d="M2.91675 16.2144C3.81949 16.0996 4.73214 16.043 5.64633 16.0449C9.51374 15.9735 13.2864 17.0278 16.2913 19.0201C19.078 20.8678 21.0361 23.4105 21.8751 26.2499" stroke="#383838" stroke-width="1.5" stroke-linejoin="round"/>
<path d="M18.958 10.2083H18.9711" stroke="#383838" stroke-width="2" stroke-linecap="round" stroke-linejoin="round"/>
</svg>
