<svg width="35" height="35" viewBox="0 0 35 35" fill="none" xmlns="http://www.w3.org/2000/svg">
<path d="M18.9583 12.3958H19.6875V6.84876C19.6875 6.2879 20.1422 5.83325 20.7029 5.83325C20.9854 5.83325 21.2551 5.95082 21.4471 6.15776L30.1289 15.5073C30.4478 15.8507 30.625 16.302 30.625 16.7708C30.625 17.2395 30.4478 17.6908 30.1289 18.0343L21.4471 27.3838C21.2551 27.5907 20.9854 27.7083 20.7029 27.7083C20.1422 27.7083 19.6875 27.2535 19.6875 26.6928V21.1458C11.5873 21.1458 7.2142 27.0027 6.11332 28.7068C5.9316 28.9881 5.62498 29.1666 5.2901 29.1666C4.7847 29.1666 4.375 28.7569 4.375 28.2515V26.9791C4.375 18.925 10.9042 12.3958 18.9583 12.3958Z" fill="white"/>
</svg>
