<svg width="35" height="35" viewBox="0 0 35 35" fill="none" xmlns="http://www.w3.org/2000/svg">
<path d="M7.49992 20.4167C6.44189 18.6787 5.83325 16.6423 5.83325 14.4651C5.83325 8.08711 11.0566 2.91675 17.4999 2.91675C23.9433 2.91675 29.1666 8.08711 29.1666 14.4651C29.1666 16.6423 28.558 18.6787 27.4999 20.4167" stroke="#383838" stroke-width="1.5" stroke-linecap="round"/>
<path d="M10.7668 24.9348C10.6328 24.5314 10.5658 24.3297 10.5736 24.1664C10.5901 23.8208 10.808 23.5173 11.1295 23.3923C11.2814 23.3333 11.4933 23.3333 11.917 23.3333H23.0832C23.507 23.3333 23.7187 23.3333 23.8707 23.3923C24.1922 23.5173 24.4101 23.8208 24.4266 24.1664C24.4343 24.3297 24.3674 24.5314 24.2334 24.9348C23.9857 25.6803 23.8619 26.0532 23.671 26.3549C23.271 26.9873 22.6439 27.4409 21.9197 27.6219C21.5739 27.7083 21.1824 27.7083 20.3994 27.7083H14.6008C13.8177 27.7083 13.4262 27.7083 13.0805 27.6219C12.3563 27.4409 11.7292 26.9873 11.3291 26.3549C11.1382 26.0532 11.0144 25.6803 10.7668 24.9348Z" stroke="#383838" stroke-width="1.5"/>
<path d="M21.875 27.7083L21.6864 28.6512C21.4802 29.6824 21.3771 30.1979 21.146 30.6054C20.7888 31.2352 20.2099 31.7098 19.5221 31.9365C19.0773 32.0833 18.5516 32.0833 17.5 32.0833C16.4484 32.0833 15.9227 32.0833 15.4779 31.9365C14.7901 31.7098 14.2112 31.2352 13.854 30.6054C13.6229 30.1979 13.5198 29.6824 13.3136 28.6512L13.125 27.7083" stroke="#383838" stroke-width="1.5"/>
<path d="M17.5 23.3334V16.0417" stroke="#383838" stroke-width="1.5" stroke-linecap="round" stroke-linejoin="round"/>
</svg>
