<svg width="35" height="35" viewBox="0 0 35 35" fill="none" xmlns="http://www.w3.org/2000/svg">
<path d="M32.0834 17.5001C32.0834 25.5542 25.5542 32.0834 17.5001 32.0834C9.44592 32.0834 2.91675 25.5542 2.91675 17.5001C2.91675 9.44592 9.44592 2.91675 17.5001 2.91675C25.5542 2.91675 32.0834 9.44592 32.0834 17.5001Z" stroke="#383838" stroke-width="1.5"/>
<path d="M13.125 8.75C11.1247 9.53117 9.53117 11.1247 8.75 13.125" stroke="#383838" stroke-width="1.5" stroke-linecap="round"/>
<path d="M20.4166 17.4999C20.4166 15.889 19.1108 14.5833 17.4999 14.5833C15.889 14.5833 14.5833 15.889 14.5833 17.4999C14.5833 19.1108 15.889 20.4166 17.4999 20.4166C19.1108 20.4166 20.4166 19.1108 20.4166 17.4999Z" stroke="#383838" stroke-width="1.5"/>
</svg>
