<svg width="24" height="24" viewBox="0 0 24 24" fill="none" xmlns="http://www.w3.org/2000/svg">
<path d="M14.2359 5.29178C14.2359 4.77191 14.2359 4.51198 14.1788 4.29871C14.0237 3.71997 13.5716 3.26793 12.993 3.11285C12.4314 2.96238 11.5683 2.96238 11.0067 3.11285C10.428 3.26793 9.97603 3.71997 9.82095 4.29871C9.76381 4.51198 9.76381 4.77191 9.76381 5.29178C9.76381 6.34588 9.76381 9.109 9.43635 9.43647C9.10888 9.76393 6.34576 9.76393 5.29166 9.76393C4.77179 9.76393 4.51186 9.76393 4.29859 9.82107C3.71985 9.97615 3.26781 10.4282 3.11273 11.0069C2.96226 11.5685 2.96226 12.4315 3.11273 12.9931C3.26781 13.5718 3.71985 14.0239 4.29859 14.1789C4.51186 14.2361 4.77179 14.2361 5.29166 14.2361C6.34576 14.2361 9.10888 14.2361 9.43635 14.5635C9.76381 14.891 9.76381 15.418 9.76381 16.4721C9.76381 16.992 9.76381 19.4881 9.82095 19.7013C9.97603 20.28 10.428 20.7321 11.0067 20.8871C11.5683 21.0376 12.4314 21.0376 12.993 20.8871C13.5716 20.7321 14.0237 20.28 14.1788 19.7013C14.2359 19.4881 14.2359 16.992 14.2359 16.4721C14.2359 15.418 14.2359 14.891 14.5634 14.5635C14.8908 14.2361 17.6539 14.2361 18.7081 14.2361C19.2279 14.2361 19.4879 14.2361 19.7012 14.1789C20.2799 14.0239 20.7319 13.5718 20.887 12.9931C21.0375 12.4315 21.0375 11.5685 20.887 11.0069C20.7319 10.4282 20.2799 9.97615 19.7012 9.82107C19.4879 9.76393 19.2279 9.76393 18.7081 9.76393C17.6539 9.76393 14.8908 9.76393 14.5634 9.43647C14.2359 9.109 14.2359 6.34588 14.2359 5.29178Z" fill="#FFF0F6" stroke="#383838" stroke-width="1.5" stroke-linecap="round" stroke-linejoin="round"/>
</svg>
