<svg width="48" height="48" viewBox="0 0 48 48" fill="none" xmlns="http://www.w3.org/2000/svg">
<path d="M12.3871 12C9.90968 12 8 13.6 8 16.3871V24.3355C8.20645 25.3161 9.23871 26.0387 10.3742 26.0387C11.6645 26.0387 12.5935 25.1097 12.5935 23.9742V19.9484H16.1032V23.9226C16.1032 26.1419 13.2645 27.2774 11.2 27.2774C10.0129 27.2774 8.87742 26.9161 8.05161 26.2968V35.071H13.6258C15.5871 35.071 17.8581 33.2129 17.8581 30.8387V12H12.3871Z" fill="#1174CE"/>
<path d="M8 16.3871V24.3355C8.20645 25.3161 9.23871 26.0387 10.3742 26.0387C11.6645 26.0387 12.5935 25.1097 12.5935 23.9742V19.9484H16.1032V23.9226C16.1032 26.1419 13.2645 27.2774 11.2 27.2774C10.0129 27.2774 8.87742 26.9161 8.05161 26.2968V35.071H13.6258C15.5871 35.071 17.8581 33.2129 17.8581 30.8387V12" fill="#0F549D"/>
<path d="M16.0516 19.9484V23.9226C16.0516 26.142 13.2129 27.2775 11.1484 27.2775C9.96129 27.2775 8.82581 26.9162 8 26.2968V35.071H13.5742C15.5355 35.071 17.8065 33.2129 17.8065 30.8387" fill="#02375E"/>
<path d="M31.8984 25.9355H34.3242C34.9436 25.9355 35.5113 25.3678 35.5113 24.7484C35.5113 24.1291 34.9436 23.5613 34.3242 23.5613H31.8984V25.9355Z" fill="#146643"/>
<path d="M34.6321 12C32.103 12 30.245 13.6 30.245 16.3355V19.9484H36.7482C37.6772 19.9484 38.4514 20.7226 38.4514 21.6516C38.4514 22.5806 37.6772 23.3548 36.7482 23.3548C37.7805 23.3548 38.6063 24.0774 38.6063 25.0065C38.6063 25.9355 37.8321 26.6581 36.7482 26.6581H30.1934V35.071H35.7676C37.7288 35.071 39.9998 33.2129 39.9998 30.8387V12H34.6321Z" fill="#1BCC38"/>
<path d="M30.1934 16.3871V19.9484H36.6966C37.6256 19.9484 38.3998 20.7226 38.3998 21.6516C38.3998 22.5806 37.6256 23.3548 36.6966 23.3548C37.7288 23.3548 38.5546 24.0774 38.5546 25.0065C38.5546 25.9355 37.7805 26.6581 36.6966 26.6581H30.1934V35.071H35.7676C37.7288 35.071 39.9998 33.2129 39.9998 30.8387V12" fill="#329947"/>
<path d="M38.3998 21.6516C38.3998 22.5806 37.6256 23.3548 36.6966 23.3548C37.7288 23.3548 38.5546 24.0774 38.5546 25.0064C38.5546 25.9355 37.7805 26.6581 36.6966 26.6581H30.1934V35.071H35.7676C37.7288 35.071 39.9998 33.2129 39.9998 30.8387" fill="#146643"/>
<path d="M35.4597 21.8581C35.4597 21.2387 34.892 20.671 34.2726 20.671H31.8984V22.9935H34.3242C34.9436 22.9935 35.4597 22.4774 35.4597 21.8581Z" fill="#146643"/>
<path d="M23.432 12C20.903 12 19.0449 13.6 19.0449 16.3355V20.7742C19.6643 20.2581 20.4385 19.8968 21.2643 19.8968H27.1481V21.1355C25.7546 20.8258 24.4127 20.671 23.7417 20.671C22.2965 20.671 21.1094 21.8581 21.1094 23.3032C21.1094 24.7484 22.2965 25.9355 23.7417 25.9355C24.4127 25.9355 25.7546 25.8323 27.1481 25.5226V26.6581H21.2643C20.4385 26.6581 19.6127 26.3484 19.0449 25.7806V35.071H24.6191C26.5804 35.071 28.8514 33.2129 28.8514 30.8387V12H23.432Z" fill="#E20E37"/>
<path d="M19.0449 16.3871V20.8258C19.6643 20.3097 20.4385 19.9484 21.2643 19.9484H27.1481V21.1871C25.7546 20.8774 24.4127 20.7226 23.7417 20.7226C22.2965 20.7226 21.1094 21.9097 21.1094 23.3548C21.1094 24.8 22.2965 25.9871 23.7417 25.9871C24.4127 25.9871 25.7546 25.8839 27.1481 25.5742V26.6581H21.2643C20.4385 26.6581 19.6127 26.3484 19.0449 25.7806V35.071H24.6191C26.5804 35.071 28.8514 33.2129 28.8514 30.8387V12" fill="#B41F36"/>
<path d="M27.1481 19.9484V21.1871C25.7546 20.8774 24.4127 20.7226 23.7417 20.7226C22.2965 20.7226 21.1094 21.9097 21.1094 23.3548C21.1094 24.8 22.2965 25.9871 23.7417 25.9871C24.4127 25.9871 25.7546 25.8838 27.1481 25.5742V26.658H21.2643C20.4385 26.658 19.6127 26.3484 19.0449 25.7806V35.0709H24.6191C26.5804 35.0709 28.8514 33.2129 28.8514 30.8387" fill="#720A1E"/>
</svg>
