<svg width="48" height="48" viewBox="0 0 48 48" fill="none" xmlns="http://www.w3.org/2000/svg">
<path d="M43.3311 23.5C43.3311 29.828 38.2202 35 31.8316 35C25.5038 35 20.332 29.828 20.332 23.5C20.332 17.172 25.4429 12 31.7707 12C38.2202 12 43.3311 17.172 43.3311 23.5Z" fill="#FFB600"/>
<path d="M31.8316 12C38.1593 12 43.3311 17.172 43.3311 23.5C43.3311 29.828 38.2202 35 31.8316 35C25.5038 35 20.332 29.828 20.332 23.5" fill="#F7981D"/>
<path d="M31.8301 12C38.1579 12 43.3296 17.172 43.3296 23.5C43.3296 29.828 38.2187 35 31.8301 35" fill="#FF8500"/>
<path d="M16.3778 12C10.1109 12.0608 5 17.172 5 23.5C5 29.828 10.1109 35 16.4995 35C19.4809 35 22.158 33.8439 24.2267 32.0185C24.6526 31.6534 25.0177 31.2275 25.3828 30.8016H23.0098C22.7056 30.4365 22.4014 30.0106 22.158 29.6455H26.2346C26.478 29.2804 26.7213 28.8545 26.9039 28.4286H21.4887C21.3062 28.0635 21.1237 27.6376 21.002 27.2116H27.3298C27.6948 26.0556 27.9382 24.8386 27.9382 23.5608C27.9382 22.709 27.8165 21.918 27.6948 21.127H20.6369C20.6978 20.7011 20.8195 20.336 20.9411 19.9101H27.2689C27.1472 19.4841 26.9647 19.0582 26.7822 18.6931H21.4279C21.6104 18.2672 21.8538 17.9021 22.0972 17.4762H26.1737C25.9304 17.0503 25.6261 16.6243 25.2611 16.2593H23.0098C23.3749 15.8333 23.74 15.4683 24.1659 15.1032C22.158 13.2169 19.42 12.1217 16.4387 12.1217C16.4387 12 16.4387 12 16.3778 12Z" fill="#FF5050"/>
<path d="M5 23.5001C5 29.8281 10.1109 35.0001 16.4995 35.0001C19.4809 35.0001 22.158 33.844 24.2267 32.0186C24.6526 31.6535 25.0177 31.2276 25.3828 30.8017H23.0098C22.7056 30.4366 22.4014 30.0106 22.158 29.6456H26.2346C26.478 29.2805 26.7213 28.8546 26.9039 28.4286H21.4887C21.3062 28.0636 21.1237 27.6376 21.002 27.2117H27.3298C27.6948 26.0556 27.9382 24.8387 27.9382 23.5609C27.9382 22.7091 27.8165 21.9181 27.6948 21.1271H20.6369C20.6978 20.7011 20.8195 20.336 20.9411 19.9101H27.2689C27.1472 19.4842 26.9647 19.0583 26.7822 18.6932H21.4279C21.6104 18.2673 21.8538 17.9022 22.0972 17.4763H26.1737C25.9304 17.0503 25.6261 16.6244 25.2611 16.2593H23.0098C23.3749 15.8334 23.74 15.4683 24.1659 15.1032C22.158 13.217 19.42 12.1218 16.4387 12.1218H16.3778" fill="#E52836"/>
<path d="M16.5006 35C19.482 35 22.1591 33.8439 24.2278 32.0185C24.6537 31.6534 25.0188 31.2275 25.3838 30.8016H23.0109C22.7067 30.4365 22.4025 30.0106 22.1591 29.6455H26.2356C26.479 29.2804 26.7224 28.8545 26.9049 28.4286H21.4898C21.3073 28.0635 21.1247 27.6376 21.0031 27.2116H27.3308C27.6959 26.0556 27.9393 24.8386 27.9393 23.5609C27.9393 22.709 27.8176 21.918 27.6959 21.127H20.638C20.6988 20.7011 20.8205 20.336 20.9422 19.9101H27.27C27.1483 19.4841 26.9658 19.0582 26.7832 18.6931H21.429C21.6115 18.2672 21.8549 17.9021 22.0982 17.4762H26.1748C25.9314 17.0503 25.6272 16.6243 25.2621 16.2593H23.0109C23.376 15.8333 23.741 15.4683 24.1669 15.1032C22.1591 13.2169 19.4211 12.1217 16.4397 12.1217H16.3789" fill="#CB2026"/>
<path d="M20.575 26.4208L20.7576 25.3864C20.6967 25.3864 20.575 25.4472 20.4533 25.4472C20.0274 25.4472 19.9666 25.2038 20.0274 25.0822L20.3925 22.9525H21.0618L21.2443 21.7964H20.6359L20.7576 21.0663H19.5407C19.5407 21.0663 18.8105 25.0822 18.8105 25.5689C18.8105 26.2991 19.2365 26.6033 19.7841 26.6033C20.1491 26.6033 20.4533 26.4816 20.575 26.4208Z" fill="white"/>
<path d="M21.0039 24.4737C21.0039 26.1774 22.1599 26.6033 23.1334 26.6033C24.0461 26.6033 24.4112 26.4208 24.4112 26.4208L24.6545 25.2647C24.6545 25.2647 23.9853 25.5689 23.3768 25.5689C22.0383 25.5689 22.2816 24.5954 22.2816 24.5954H24.7762C24.7762 24.5954 24.9588 23.8044 24.9588 23.5002C24.9588 22.7092 24.5329 21.7356 23.1943 21.7356C21.9166 21.6139 21.0039 22.9525 21.0039 24.4737ZM23.1334 22.7092C23.8027 22.7092 23.681 23.5002 23.681 23.561H22.3425C22.3425 23.5002 22.4642 22.7092 23.1334 22.7092Z" fill="white"/>
<path d="M30.8601 26.4208L31.1035 25.0822C31.1035 25.0822 30.495 25.3864 30.0691 25.3864C29.2173 25.3864 28.8522 24.7171 28.8522 23.9869C28.8522 22.5266 29.5824 21.7356 30.4342 21.7356C31.0426 21.7356 31.5294 22.1007 31.5294 22.1007L31.7119 20.8229C31.7119 20.8229 30.9818 20.5187 30.3125 20.5187C28.9131 20.5187 27.5137 21.7356 27.5137 24.0478C27.5137 25.5689 28.2438 26.6033 29.7041 26.6033C30.1908 26.6033 30.8601 26.4208 30.8601 26.4208Z" fill="white"/>
<path d="M13.8824 21.6138C13.0306 21.6138 12.4221 21.8572 12.4221 21.8572L12.2396 22.8916C12.2396 22.8916 12.7872 22.6482 13.5782 22.6482C14.0041 22.6482 14.3691 22.7091 14.3691 23.0741C14.3691 23.3175 14.3083 23.3784 14.3083 23.3784C14.3083 23.3784 13.9432 23.3784 13.7607 23.3784C12.7263 23.3784 11.5703 23.8043 11.5703 25.2038C11.5703 26.299 12.3004 26.5424 12.7263 26.5424C13.5782 26.5424 13.9432 25.9948 14.0041 25.9948L13.9432 26.4816H15.0384L15.5252 23.135C15.5252 21.6747 14.3083 21.6138 13.8824 21.6138ZM14.1258 24.3519C14.1258 24.5345 14.0041 25.508 13.2739 25.508C12.9089 25.508 12.7872 25.2038 12.7872 25.0212C12.7872 24.717 12.9697 24.2911 13.8824 24.2911C14.0649 24.3519 14.1258 24.3519 14.1258 24.3519Z" fill="white"/>
<path d="M16.6826 26.5425C16.9868 26.5425 18.5079 26.6033 18.5079 24.9604C18.5079 23.4393 17.0477 23.7435 17.0477 23.135C17.0477 22.8308 17.2911 22.7091 17.717 22.7091C17.8995 22.7091 18.5688 22.77 18.5688 22.77L18.7513 21.6747C18.7513 21.6747 18.3254 21.553 17.5953 21.553C16.6826 21.553 15.77 21.9181 15.77 23.135C15.77 24.5345 17.2911 24.4128 17.2911 24.9604C17.2911 25.3255 16.8651 25.3864 16.5609 25.3864C16.0133 25.3864 15.4657 25.2038 15.4657 25.2038L15.2832 26.2991C15.344 26.4208 15.6483 26.5425 16.6826 26.5425Z" fill="white"/>
<path d="M40.9564 20.6403L40.713 22.2832C40.713 22.2832 40.2263 21.6747 39.557 21.6747C38.4618 21.6747 37.4883 23.0133 37.4883 24.5953C37.4883 25.5689 37.975 26.6033 39.0094 26.6033C39.7395 26.6033 40.1654 26.1165 40.1654 26.1165L40.1046 26.5424H41.3215L42.2341 20.7012L40.9564 20.6403ZM40.4088 23.8652C40.4088 24.5345 40.1046 25.3863 39.4353 25.3863C39.0094 25.3863 38.766 25.0213 38.766 24.4128C38.766 23.4393 39.1919 22.8308 39.7395 22.8308C40.1654 22.8308 40.4088 23.135 40.4088 23.8652Z" fill="white"/>
<path d="M7.25174 26.4816L7.98187 22.1006L8.10356 26.4816H8.95537L10.5373 22.1006L9.86803 26.4816H11.1458L12.1193 20.6403H10.1114L8.89453 24.2303L8.83369 20.6403H7.06921L6.0957 26.4816H7.25174Z" fill="white"/>
<path d="M26.114 26.4816C26.479 24.4736 26.5399 22.8308 27.3917 23.135C27.5134 22.344 27.6959 22.0398 27.8176 21.7355C27.8176 21.7355 27.7567 21.7355 27.5742 21.7355C27.0266 21.7355 26.6007 22.4657 26.6007 22.4657L26.7224 21.7964H25.5664L24.7754 26.5424H26.114V26.4816Z" fill="white"/>
<path d="M33.6578 21.6139C32.806 21.6139 32.1975 21.8573 32.1975 21.8573L32.015 22.8917C32.015 22.8917 32.5626 22.6483 33.3536 22.6483C33.7795 22.6483 34.1445 22.7091 34.1445 23.0742C34.1445 23.3176 34.0837 23.3784 34.0837 23.3784C34.0837 23.3784 33.7186 23.3784 33.5361 23.3784C32.5017 23.3784 31.3457 23.8044 31.3457 25.2038C31.3457 26.2991 32.0758 26.5425 32.5017 26.5425C33.3536 26.5425 33.7186 25.9948 33.7795 25.9948L33.7186 26.4816H34.8138L35.3006 23.1351C35.3614 21.6747 34.0837 21.6139 33.6578 21.6139ZM33.962 24.352C33.962 24.5345 33.8403 25.5081 33.1102 25.5081C32.7451 25.5081 32.6234 25.2038 32.6234 25.0213C32.6234 24.7171 32.806 24.2911 33.7186 24.2911C33.9012 24.352 33.9012 24.352 33.962 24.352Z" fill="white"/>
<path d="M36.3366 26.4816C36.7017 24.4737 36.7625 22.8308 37.6143 23.1351C37.736 22.3441 37.9186 22.0398 38.0402 21.7356C38.0402 21.7356 37.9794 21.7356 37.7969 21.7356C37.2493 21.7356 36.8234 22.4658 36.8234 22.4658L36.9451 21.7964H35.789L34.998 26.5425H36.3366V26.4816Z" fill="white"/>
<path d="M18.6895 25.5689C18.6895 26.2991 19.1154 26.6033 19.663 26.6033C20.0889 26.6033 20.4539 26.4816 20.5756 26.4208L20.7582 25.3864C20.6973 25.3864 20.5756 25.4472 20.4539 25.4472C20.028 25.4472 19.9672 25.2038 20.028 25.0822L20.3931 22.9525H21.0624L21.2449 21.7964H20.6365L20.7582 21.0663" fill="#DCE5E5"/>
<path d="M21.6094 24.4736C21.6094 26.1773 22.157 26.6033 23.1305 26.6033C24.0431 26.6033 24.4082 26.4207 24.4082 26.4207L24.6516 25.2646C24.6516 25.2646 23.9823 25.5689 23.3739 25.5689C22.0353 25.5689 22.2787 24.5953 22.2787 24.5953H24.7733C24.7733 24.5953 24.9558 23.8043 24.9558 23.5001C24.9558 22.7091 24.5299 21.7355 23.1913 21.7355C21.9136 21.6139 21.6094 22.9525 21.6094 24.4736ZM23.1305 22.7091C23.7998 22.7091 23.9214 23.5001 23.9214 23.5609H22.3395C22.3395 23.5001 22.4612 22.7091 23.1305 22.7091Z" fill="#DCE5E5"/>
<path d="M30.861 26.4208L31.1044 25.0822C31.1044 25.0822 30.496 25.3864 30.0701 25.3864C29.2182 25.3864 28.8532 24.7171 28.8532 23.9869C28.8532 22.5266 29.5833 21.7356 30.4351 21.7356C31.0436 21.7356 31.5303 22.1007 31.5303 22.1007L31.7128 20.8229C31.7128 20.8229 30.9827 20.5187 30.3134 20.5187C28.914 20.5187 28.123 21.7356 28.123 24.0478C28.123 25.5689 28.2447 26.6033 29.705 26.6033C30.1917 26.6033 30.861 26.4208 30.861 26.4208Z" fill="#DCE5E5"/>
<path d="M12.2396 22.9525C12.2396 22.9525 12.7872 22.7091 13.5782 22.7091C14.0041 22.7091 14.3691 22.7699 14.3691 23.135C14.3691 23.3784 14.3083 23.4392 14.3083 23.4392C14.3083 23.4392 13.9432 23.4392 13.7607 23.4392C12.7263 23.4392 11.5703 23.8652 11.5703 25.2646C11.5703 26.3599 12.3004 26.6033 12.7263 26.6033C13.5782 26.6033 13.9432 26.0556 14.0041 26.0556L13.9432 26.5424H15.0384L15.5252 23.1959C15.5252 21.7964 14.3083 21.7355 13.8215 21.7355M14.7342 24.3519C14.7342 24.5345 14.0041 25.508 13.2739 25.508C12.9089 25.508 12.7872 25.2038 12.7872 25.0212C12.7872 24.717 12.9697 24.2911 13.8824 24.2911C14.0649 24.3519 14.7342 24.3519 14.7342 24.3519Z" fill="#DCE5E5"/>
<path d="M15.3418 26.4208C15.3418 26.4208 15.7069 26.5425 16.7412 26.5425C17.0454 26.5425 18.5665 26.6033 18.5665 24.9604C18.5665 23.4393 17.1063 23.7435 17.1063 23.135C17.1063 22.8308 17.3497 22.7091 17.7756 22.7091C17.9581 22.7091 18.6274 22.77 18.6274 22.77L18.8099 21.6747C18.8099 21.6747 18.384 21.553 17.6539 21.553C16.7412 21.553 16.437 21.9181 16.437 23.135C16.437 24.5345 17.3497 24.4128 17.3497 24.9604C17.3497 25.3255 16.9237 25.3864 16.6195 25.3864" fill="#DCE5E5"/>
<path d="M40.7125 22.2832C40.7125 22.2832 40.2258 21.6747 39.5565 21.6747C38.4613 21.6747 38.0962 23.0133 38.0962 24.5954C38.0962 25.5689 37.9745 26.6033 39.0089 26.6033C39.739 26.6033 40.1649 26.1165 40.1649 26.1165L40.1041 26.5424H41.3209L42.2336 20.7012M40.6517 23.8652C40.6517 24.5345 40.1041 25.3864 39.4348 25.3864C39.0089 25.3864 38.7655 25.0213 38.7655 24.4128C38.7655 23.4393 39.1914 22.8308 39.739 22.8308C40.1649 22.8308 40.6517 23.135 40.6517 23.8652Z" fill="#DCE5E5"/>
<path d="M7.25174 26.4815L7.98187 22.1006L8.10356 26.4815H8.95537L10.5373 22.1006L9.86803 26.4815H11.1458L12.1193 20.6403H10.5982L8.89453 24.2302L8.83369 20.6403H8.1644L6.0957 26.4815H7.25174Z" fill="#DCE5E5"/>
<path d="M24.8359 26.4816H26.1137C26.4787 24.4737 26.5396 22.8308 27.3914 23.1351C27.5131 22.3441 27.6956 22.0398 27.8173 21.7356C27.8173 21.7356 27.7565 21.7356 27.5739 21.7356C27.0263 21.7356 26.6004 22.4658 26.6004 22.4658L26.7221 21.7964" fill="#DCE5E5"/>
<path d="M32.015 22.9524C32.015 22.9524 32.5626 22.709 33.3536 22.709C33.7795 22.709 34.1445 22.7699 34.1445 23.1349C34.1445 23.3783 34.0837 23.4392 34.0837 23.4392C34.0837 23.4392 33.7186 23.4392 33.5361 23.4392C32.5017 23.4392 31.3457 23.8651 31.3457 25.2646C31.3457 26.3598 32.0758 26.6032 32.5017 26.6032C33.3536 26.6032 33.7186 26.0556 33.7795 26.0556L33.7186 26.5423H34.8138L35.3006 23.1958C35.3006 21.7963 34.0837 21.7355 33.5969 21.7355M34.5096 24.3519C34.5096 24.5344 33.7795 25.508 33.0493 25.508C32.6843 25.508 32.5626 25.2037 32.5626 25.0212C32.5626 24.717 32.7451 24.291 33.6578 24.291C33.9012 24.3519 34.5096 24.3519 34.5096 24.3519Z" fill="#DCE5E5"/>
<path d="M35.0586 26.4816H36.3363C36.7014 24.4737 36.7622 22.8308 37.614 23.1351C37.7357 22.3441 37.9183 22.0398 38.04 21.7356C38.04 21.7356 37.9791 21.7356 37.7966 21.7356C37.249 21.7356 36.8231 22.4658 36.8231 22.4658L36.9448 21.7964" fill="#DCE5E5"/>
</svg>
