<svg width="24" height="24" viewBox="0 0 24 24" fill="none" xmlns="http://www.w3.org/2000/svg">
<path d="M13 8.5H13.5V4.69635C13.5 4.31176 13.8118 4 14.1964 4C14.39 4 14.5749 4.08062 14.7066 4.22252L20.6598 10.6336C20.8785 10.8691 21 11.1786 21 11.5C21 11.8214 20.8785 12.1309 20.6598 12.3664L14.7066 18.7775C14.5749 18.9194 14.39 19 14.1964 19C13.8118 19 13.5 18.6882 13.5 18.3037V14.5C7.9456 14.5 4.9469 18.5162 4.192 19.6847C4.0674 19.8776 3.8571 20 3.6275 20C3.2809 20 3 19.7191 3 19.3725V18.5C3 12.9772 7.4772 8.5 13 8.5Z" stroke="#383838" stroke-width="1.5" stroke-linejoin="round"/>
</svg>
