<svg width="48" height="48" viewBox="0 0 48 48" fill="none" xmlns="http://www.w3.org/2000/svg">
<path d="M4 9H17.5147C19.106 9 20.6322 9.63214 21.7574 10.7574L28 17" stroke="#383838" stroke-width="1.5" stroke-linecap="round" stroke-linejoin="round"/>
<path d="M10 27H4" stroke="#383838" stroke-width="1.5" stroke-linecap="round" stroke-linejoin="round"/>
<path d="M17 15L21 19C22.1046 20.1046 22.1046 21.8954 21 23C19.8954 24.1046 18.1046 24.1046 17 23L14 20C12.2786 21.7214 9.55342 21.915 7.60588 20.4544L7 20" stroke="#383838" stroke-width="1.5" stroke-linecap="round" stroke-linejoin="round"/>
<path d="M10 22V31C10 34.7712 10 36.6568 11.1716 37.8284C12.3431 39 14.2288 39 18 39H36C39.7712 39 41.6568 39 42.8284 37.8284C44 36.6568 44 34.7712 44 31V25C44 21.2288 44 19.3431 42.8284 18.1716C41.6568 17 39.7712 17 36 17H19" stroke="#383838" stroke-width="1.5" stroke-linecap="round" stroke-linejoin="round"/>
<path d="M30.5 28C30.5 29.933 28.933 31.5 27 31.5C25.067 31.5 23.5 29.933 23.5 28C23.5 26.067 25.067 24.5 27 24.5C28.933 24.5 30.5 26.067 30.5 28Z" stroke="#383838" stroke-width="1.5" stroke-linecap="round" stroke-linejoin="round"/>
</svg>
