<svg width="427" height="163" viewBox="0 0 427 163" fill="none" xmlns="http://www.w3.org/2000/svg">
<ellipse cx="195.42" cy="69.6451" rx="193.42" ry="68.6451" stroke="#383838" stroke-width="2"/>
<path d="M273.546 96.8008C283.558 97.4834 290.082 100.593 292.964 106.282C293.874 107.951 294.329 109.923 294.329 112.122C294.329 114.322 293.799 116.294 292.661 118.19C291.599 120.087 290.234 121.604 288.489 122.894C286.821 124.107 284.848 125.244 282.572 126.154C278.476 127.823 274.077 128.961 269.526 129.416C271.423 129.264 272.94 129.265 274.153 129.265C280.145 129.265 284.848 130.555 288.262 133.058C291.675 135.561 293.419 139.125 293.419 143.752C293.419 146.407 292.812 148.91 291.675 151.109C290.537 153.309 289.02 155.13 287.199 156.571C285.379 158.012 283.255 159.226 280.752 160.212C276.201 162.032 271.195 162.942 265.733 162.942C263.155 162.867 260.879 162.563 258.68 162.032C262.169 160.819 265.203 158.24 267.857 154.296C270.512 150.352 271.802 146.331 271.802 142.311C271.802 136.85 269.299 133.133 264.293 131.085C263.762 130.782 263.534 130.251 263.534 129.492C263.534 127.824 264.065 126.762 265.051 126.534C267.326 125.927 269.223 123.955 270.815 120.542C272.408 117.129 273.167 113.336 273.167 109.24C273.167 105.068 271.802 102.034 269.223 100.062C269.223 99.6064 269.754 98.9239 270.815 98.0898C271.877 97.2557 272.787 96.801 273.546 96.8008ZM240.021 97.1797C241.538 89.5946 249.881 90.3535 252.764 96.5732C252.99 96.8008 252.688 97.1797 253.446 97.1797C258.301 96.8763 262.321 96.7246 265.431 96.7246C260.88 116.218 257.769 137.002 256.101 159.074C256.1 159.529 255.57 160.136 254.584 161.046C253.598 161.88 252.687 162.26 251.929 162.26C246.316 162.26 239.186 162.108 230.312 161.729C233.346 149.592 235.773 135.711 237.669 119.935L238.124 116.294C239.262 110.074 239.262 104.006 240.021 97.1797ZM135.346 100.973C140.655 93.3877 152.033 97.938 161.362 97.4072H168.341C169.479 108.178 170.617 116.066 171.679 121.072C172.741 126.154 173.651 130.099 174.409 132.905C176.078 139.049 177.823 142.159 179.795 142.159C180.326 142.159 180.857 142.007 181.388 141.628C179.34 145.572 176.761 151.337 173.499 158.771C173.271 159.226 172.664 159.909 171.754 160.743C170.844 161.501 170.01 161.956 169.327 161.956H154.309V161.881C151.806 146.635 148.847 131.768 145.586 117.129C145.358 115.991 145.055 114.853 144.827 113.791C141.414 109.316 131.554 107.04 135.346 100.973ZM200.502 94.8281C208.087 87.2432 217.948 91.7946 224.547 97.2559C225.76 97.3317 226.974 97.3311 228.036 97.3311H231.449C227.05 116.066 223.94 136.47 222.195 158.694C222.195 159.074 221.665 159.757 220.679 160.591C219.693 161.501 218.782 161.881 218.1 161.881H196.026C198.909 149.29 201.261 136.015 203.081 121.982C203.233 120.845 203.384 119.632 203.46 118.494C201.126 115.382 199.08 111.848 198.065 108.214C194.544 114.993 190.106 123.952 184.801 135.105C184.573 135.636 184.042 136.243 183.132 137.077C182.222 137.836 181.388 138.215 180.705 138.215C183.36 128.127 184.725 117.356 184.725 105.902L184.573 100.517C184.574 100.137 185.104 99.4545 186.09 98.6963C187.152 97.8619 187.987 97.4834 188.745 97.4834H198.796C199.244 96.5823 199.808 95.695 200.502 94.8281ZM297.818 107.799C303.128 99.4552 313.748 86.5605 321.939 97.4072H330.89C328.311 107.799 326.263 118.418 324.746 129.113C332.255 129.948 337.792 130.857 341.281 131.919C341.281 133.664 340.902 134.954 340.22 135.788C335.062 136.091 329.449 136.925 323.532 138.215C322.698 144.89 321.939 151.716 321.408 158.771C321.408 159.15 320.878 159.833 319.892 160.667C318.906 161.501 317.995 161.881 317.312 161.881H295.239C298.804 149.138 301.536 132.753 303.508 112.805C303.584 111.819 303.28 112.274 303.128 112.122C300.852 110.833 296.302 109.316 297.818 107.799ZM348.184 139.277C347.122 148.682 346.06 155.053 345.149 158.467C344.846 159.074 344.316 159.833 343.481 160.667C342.647 161.501 341.964 161.881 341.357 161.881H323.987C331.724 156.723 338.02 150.199 342.95 142.387C343.329 141.932 344.088 141.325 345.302 140.49C346.515 139.656 347.501 139.277 348.184 139.277ZM352.962 97.3311C352.734 100.365 352.28 104.537 351.521 109.695C350.763 114.853 350.004 119.253 349.17 122.894C349.018 123.424 348.487 124.107 347.577 124.865C346.667 125.699 345.833 126.079 345.074 126.079C344.316 121.301 342.874 116.522 340.75 111.819C338.626 107.117 336.503 103.551 334.379 101.124C334.531 99.607 334.986 98.3171 335.744 97.3311H352.962ZM60.1777 68.4316C60.7845 71.1623 61.7707 73.8934 63.2119 76.624C64.7289 79.3546 66.3974 81.7063 68.2178 83.6025C70.0381 85.4987 71.7825 86.6367 73.4512 87.0918C73.1478 88.7603 72.6927 89.8981 72.0859 90.5049C69.507 90.5049 66.3973 90.2012 62.9082 89.5186C59.3434 88.8359 56.7648 88.0013 55.1719 86.9395V84.5879C55.1719 79.7336 55.7783 75.1827 56.916 70.8594C56.9919 70.4802 57.4468 69.9494 58.2051 69.3428C58.9636 68.736 59.6468 68.4316 60.1777 68.4316ZM73.5586 36.6934C71.2645 39.6139 70.7969 43.783 70.7969 47.9521C71.5554 57.0542 79.8987 63.1223 88.0146 63.8809C88.5455 64.0325 89.0765 63.8811 89.6074 64.5635C90.8209 65.9287 91.8076 67.1422 92.4902 68.2041C94.2347 70.8588 95.0693 73.2105 95.0693 75.1826C95.0693 77.1547 94.6136 78.9752 93.7793 80.7197C92.9449 82.4643 91.8071 83.9817 90.29 85.4229C88.7731 86.788 86.8014 87.9261 84.4502 88.9121C82.0989 89.8223 79.5198 90.3531 76.6377 90.5049C77.3962 89.3672 77.8506 88.153 77.8506 86.9395C77.8506 85.6502 77.6236 84.4367 77.0928 83.1475C76.5618 81.8581 75.803 80.4167 74.7412 78.9756C72.9966 76.5484 71.1004 74.1964 68.9766 71.9209C66.853 69.6456 65.4115 67.9773 64.5771 66.9912C63.7428 66.0052 62.8324 64.7155 61.7705 63.2744C59.7225 60.3921 58.7363 57.4338 58.7363 54.4756C58.7363 51.5174 59.6464 48.7863 61.4668 46.2832C62.8321 44.387 64.5012 42.7943 66.625 41.5049C67.3076 41.0498 68.0658 40.6702 68.8242 40.291C70.7501 39.8095 72.1782 37.8947 73.5586 36.6934ZM182.298 38.7744C180.781 41.8084 180.781 44.8423 180.478 47.7246C180.326 48.4073 180.249 49.0146 180.098 49.6973C177.67 61.9849 176.457 70.6322 176.457 75.5625C176.457 81.5545 179.415 84.5127 185.256 84.5127C187.531 84.5127 189.731 83.8295 191.931 82.54C194.054 81.1747 195.799 79.4304 197.089 77.3066C196.406 80.9475 194.661 84.0571 191.854 86.4844C188.821 89.139 184.649 90.5048 179.34 90.5049C169.783 90.5049 163.562 88.0771 160.452 83.2227C158.708 80.4921 157.874 77.0032 157.874 72.7559C157.874 69.9494 158.48 65.0189 159.618 57.9648C159.846 56.8272 159.998 55.6894 160.149 54.5518C160.301 53.4899 160.528 52.5036 160.756 51.5176C161.818 47.8768 161.06 44.0842 162.501 40.2158C163.259 39.6091 163.942 39.2295 164.549 39.2295H180.933C181.539 39.5325 181.539 38.7744 182.298 38.7744ZM290.158 35.7402C294.709 28.1556 299.26 37.2577 304.342 38.8506C305.176 38.8506 306.011 38.7744 306.693 38.7744H308.817C305.556 52.8827 303.204 68.053 301.763 84.2852C301.687 85.347 301.46 86.2575 301.005 86.8643C300.853 87.016 300.322 87.4707 299.487 88.1533C298.653 88.9873 298.122 89.4423 297.743 89.6699C297.288 89.8974 296.681 89.9736 295.923 89.9736H293.495C290.082 89.8978 285.986 89.7464 281.359 89.5947C283.711 79.9617 285.683 69.1902 287.124 57.1299C287.276 55.9168 287.276 56.0683 287.352 55.8408C288.641 48.635 287.124 41.8083 290.158 35.7402ZM131.554 36.499C125.486 44.084 131.554 53.1858 131.326 61.3018C131.099 62.6671 130.947 63.9573 130.795 65.3984C129.885 72.2249 129.126 79.5827 128.52 87.3193C128.519 87.6228 128.14 88.1535 127.306 88.8359C126.471 89.4427 125.788 89.7461 125.182 89.7461H107.888C111.529 76.6239 114.108 60.5431 115.625 41.6562C115.625 41.3528 116.004 40.8222 116.838 40.2158C117.672 39.6092 118.355 39.2297 118.886 39.2295H127.154C128.14 39.0777 128.368 38.5472 128.975 38.168C130.037 37.2578 130.795 37.2575 131.554 36.499ZM217.341 30.4307C221.133 27.3969 224.167 36.4987 230.159 38.7744H232.056C228.339 53.8687 225.836 70.1009 224.471 87.2432C224.471 87.6224 224.091 88.0771 223.257 88.7598C222.498 89.3666 221.74 89.7461 221.209 89.7461H216.886C214.155 89.5944 211.879 89.5941 208.77 89.6699C207.556 89.7458 206.419 89.7461 205.66 89.7461H204.446C207.025 79.5063 208.997 67.9771 210.438 55.2344C210.514 54.5523 210.363 54.4757 210.362 54.3242C216.582 49.3939 212.031 35.7402 217.341 30.4307ZM262.775 38.0156C267.326 29.6723 272.636 35.7403 277.945 39.2295H281.132C280.98 39.5322 281.735 38.7779 281.738 38.7744C281.738 41.0498 281.738 43.3252 280.979 45.6006C280.752 46.6624 280.524 47.7246 280.297 48.8623C277.945 60.8468 276.201 73.6662 275.063 87.3193C275.063 87.6228 274.684 88.1535 273.85 88.8359C273.167 89.4427 272.484 89.7461 271.953 89.7461H254.659C257.086 79.2029 259.059 67.9771 260.424 56.1445C260.575 54.9314 260.576 55.3096 260.576 55.0068C262.017 49.3939 260.5 43.3252 262.775 38.0156ZM304.452 85.6582C304.289 85.7265 304.126 85.8001 303.963 85.8779C303.053 86.3329 302.218 86.712 301.46 87.167C302.302 86.3811 303.352 85.9891 304.452 85.6582ZM315.037 38.623C317.692 38.6231 320.271 39.1533 322.622 40.291C325.049 41.3529 327.173 42.8706 328.918 44.8428C330.662 46.8148 332.103 49.2419 333.165 52.124C334.227 55.0064 334.758 58.0405 334.758 61.1504C334.758 64.2603 334.379 67.2948 333.545 70.0254C332.786 72.8317 331.572 75.4101 329.903 77.9131C328.235 80.4161 326.187 82.5403 323.836 84.4365C323.229 84.8916 322.622 85.3473 321.939 85.7266C321.257 86.1058 320.574 86.5609 319.815 86.8643C315.257 85.9147 310.806 84.1743 306.503 85.0352C307.7 84.6185 308.843 84.033 309.728 82.8438L310.638 81.0234C312.079 77.9136 313.217 74.4999 314.127 70.7832C315.189 66.3082 315.795 61.8331 315.795 57.5098C315.795 50.6832 314.43 45.2213 311.775 41.2012C311.776 40.8219 312.155 40.2908 312.989 39.6084C313.748 38.926 314.43 38.623 315.037 38.623ZM306.503 85.0352C305.825 85.2712 305.129 85.4545 304.452 85.6582C305.132 85.374 305.816 85.1727 306.503 85.0352ZM182.373 42.6426C183.89 35.0575 189.959 30.5061 197.544 31.2646C201.336 31.8715 204.598 33.6163 206.873 36.3467C207.328 36.8775 207.631 37.4847 207.783 38.0156C207.404 41.8839 209.68 44.9182 208.391 49.0898C208.011 49.9241 207.556 50.7586 207.025 51.5928C205.508 54.0199 203.308 56.1438 200.957 57.8125C200.654 58.4952 200.502 59.4059 200.274 60.2402C199.364 64.7912 198.529 68.9627 197.847 72.8311C197.771 73.2103 197.316 73.7418 196.558 74.3486C195.799 74.9552 195.117 75.2586 194.586 75.2588C194.586 70.6319 194.434 66.3837 194.131 62.667C194.055 61.9086 193.978 61.1503 193.902 60.4678C190.717 54.0206 180.098 51.7446 182.373 42.6426ZM237.593 38.6982C242.144 39.0016 245.861 40.1395 248.819 42.1875C249.426 42.5667 249.956 43.0225 250.487 43.4775C253.673 45.6014 253.673 49.3937 254.963 52.2002C255.039 52.8828 255.114 53.5658 255.114 54.3242C255.114 57.0545 254.508 59.5574 253.219 61.9844C251.929 64.3358 250.26 66.3085 248.212 67.9014C243.737 71.2387 238.579 72.9834 232.814 72.9834C231.373 72.9834 230.235 72.9072 229.325 72.6797C231.828 69.9491 233.8 66.9151 235.241 63.502C236.682 60.0887 237.365 56.4475 237.365 52.5791C237.365 48.7108 236.379 44.9178 234.331 41.2012C234.331 40.822 234.711 40.367 235.545 39.6846C236.379 39.002 237.062 38.6983 237.593 38.6982ZM134.512 34.9814C139.821 29.6722 149.681 29.6725 154.232 35.7402C161.059 44.0838 155.75 57.7366 145.131 62.2119C144.069 62.5912 143.158 62.7432 142.476 62.7432C136.028 55.4615 123.893 44.0835 134.512 34.9814ZM76.1816 35.7402C82.2497 28.9136 92.8694 30.4309 98.9375 36.499C100.072 37.6339 100.933 38.9581 101.544 40.3975C101.608 40.3376 101.675 40.2772 101.744 40.2158C102.427 39.6091 103.033 39.2296 103.488 39.2295H114.79C112.287 42.2635 110.315 45.0702 108.95 47.5732C107.585 50.1522 106.295 52.5796 105.081 55.0068C103.868 57.3578 102.882 59.1781 102.199 60.3916C102.048 60.695 101.365 61.0746 100.151 61.6055C98.7862 62.1364 97.8757 62.4394 97.3447 62.4395C97.4235 61.442 97.5296 60.3356 97.666 59.1201C96.7132 60.1012 95.6411 60.9456 94.4619 61.6055C93.4001 62.0605 92.5658 62.3639 91.959 62.5156C94.3862 52.4275 84.5252 41.0498 76.1816 35.7402ZM75.8789 34.6025C75.1963 35.0576 74.5133 35.5883 73.9824 36.3467C73.8411 36.4527 73.7004 36.5699 73.5586 36.6934C74.1861 35.8945 74.9503 35.189 75.8789 34.6025Z" fill="#383838"/>
<path d="M57.8616 138.609C59.8378 115.739 127.389 121.576 129.365 98.7069L110.671 98.214C108.694 121.083 41.1434 115.246 39.1672 138.116" fill="#74CF5D"/>
<path d="M78.5591 96.4782C61.8053 106.736 45.3016 79.7811 28.5478 90.0389L33.9078 96.9604C50.6616 86.7026 67.1652 113.657 83.919 103.4" fill="#43A4EA"/>
<path d="M358.411 58.8114C356.374 35.9473 423.91 29.9319 421.873 7.06781L403.379 9.83784C405.415 32.702 337.88 38.7173 339.916 61.5814" fill="#E9C039"/>
<path d="M399.413 44.6969C388.082 69.1638 347.075 50.173 335.744 74.6399L347.586 78.6765C358.917 54.2095 399.924 73.2004 411.255 48.7335" fill="#EA6F43"/>
</svg>
