<svg width="48" height="48" viewBox="0 0 48 48" fill="none" xmlns="http://www.w3.org/2000/svg">
<g clip-path="url(#clip0_2703_11085)">
<path d="M8.78731 21.0391H7.61925C7.53321 21.0392 7.4507 21.0734 7.38984 21.1343C7.32899 21.1951 7.29477 21.2777 7.29471 21.3638V28.6377C7.29474 28.7238 7.32894 28.8064 7.3898 28.8673C7.45066 28.9282 7.53319 28.9624 7.61925 28.9625H8.78731C8.87335 28.9624 8.95585 28.9282 9.01668 28.8673C9.07751 28.8064 9.1117 28.7238 9.11173 28.6377V21.3638C9.11166 21.2777 9.07746 21.1952 9.01664 21.1343C8.95581 21.0734 8.87333 21.0392 8.78731 21.0391Z" fill="#3A2C19"/>
<path d="M5.96444 27.1439H2.81702V21.3638C2.81696 21.2777 2.78276 21.1952 2.72193 21.1343C2.6611 21.0734 2.57862 21.0392 2.4926 21.0391H1.32442C1.2384 21.0392 1.15592 21.0734 1.09509 21.1343C1.03427 21.1952 1.00006 21.2777 1 21.3638V28.6377C1.00003 28.7238 1.03422 28.8064 1.09505 28.8673C1.15588 28.9282 1.23838 28.9624 1.32442 28.9625H5.96444C6.05048 28.9624 6.13298 28.9282 6.19381 28.8673C6.25464 28.8064 6.28883 28.7238 6.28886 28.6377V27.4686C6.28879 27.3825 6.25459 27.2999 6.19377 27.2391C6.13294 27.1782 6.05046 27.144 5.96444 27.1439Z" fill="#3A2C19"/>
<path d="M23.3237 22.8576C23.4098 22.8575 23.4922 22.8233 23.5531 22.7624C23.6139 22.7016 23.6481 22.619 23.6482 22.5329V21.3638C23.6481 21.2777 23.6139 21.1952 23.5531 21.1343C23.4922 21.0735 23.4098 21.0392 23.3237 21.0392H18.6837C18.5977 21.0392 18.5152 21.0735 18.4544 21.1343C18.3936 21.1952 18.3594 21.2777 18.3593 21.3638V28.6377C18.3593 28.7238 18.3935 28.8064 18.4543 28.8673C18.5152 28.9282 18.5977 28.9624 18.6837 28.9625H23.3237C23.4098 28.9624 23.4923 28.9282 23.5531 28.8673C23.6139 28.8064 23.6481 28.7238 23.6482 28.6377V27.4686C23.6481 27.3825 23.6139 27.3 23.5531 27.2391C23.4922 27.1782 23.4098 27.144 23.3237 27.1439H20.1763V25.91H23.3237C23.4098 25.9099 23.4922 25.8757 23.5531 25.8148C23.6139 25.7539 23.6481 25.6714 23.6482 25.5853V24.4162C23.6481 24.3301 23.6139 24.2476 23.5531 24.1867C23.4922 24.1258 23.4098 24.0916 23.3237 24.0915H20.1763V22.8576H23.3237Z" fill="#3A2C19"/>
<path d="M16.8018 21.0391H15.6337C15.5477 21.0392 15.4651 21.0734 15.4043 21.1343C15.3434 21.1951 15.3092 21.2777 15.3092 21.3638V25.5727L12.2523 21.1985C12.1657 21.0745 12.0364 21.0391 11.8929 21.0391C11.8748 21.0361 11.8563 21.0391 11.8373 21.0391H10.6693C10.5832 21.0392 10.5008 21.0734 10.4399 21.1343C10.3791 21.1952 10.3449 21.2777 10.3448 21.3638V28.6377C10.3449 28.7238 10.3791 28.8064 10.4399 28.8673C10.5007 28.9282 10.5832 28.9624 10.6693 28.9625H11.8373C11.9234 28.9624 12.0059 28.9282 12.0668 28.8673C12.1276 28.8064 12.1618 28.7238 12.1619 28.6377V24.2418L15.349 28.8023C15.3604 28.8188 15.3731 28.8336 15.3863 28.8476C15.4412 28.9122 15.5209 28.9561 15.6108 28.9625H16.8018C16.8878 28.9624 16.9703 28.9282 17.0311 28.8673C17.092 28.8064 17.1261 28.7238 17.1262 28.6377V21.3638C17.1261 21.2777 17.0919 21.1952 17.0311 21.1343C16.9703 21.0734 16.8878 21.0392 16.8018 21.0391Z" fill="#3A2C19"/>
<path d="M48.189 32H27.5094C27.2943 32 27.088 31.9145 26.9359 31.7623C26.7838 31.61 26.6983 31.4036 26.6983 31.1883V18.8116C26.6983 18.5963 26.7838 18.3899 26.9359 18.2377C27.088 18.0855 27.2943 18 27.5094 18H48.189C48.404 18 48.6103 18.0855 48.7624 18.2377C48.9145 18.3899 49 18.5963 49 18.8116V31.1883C49 31.4036 48.9145 31.61 48.7624 31.7623C48.6103 31.9145 48.4041 32 48.189 32Z" fill="#08BF5B"/>
<path d="M33.2606 23.4595C33.2606 22.9878 32.928 22.6272 32.4751 22.6272H31.5049V24.2917H32.4751C32.928 24.2917 33.2606 23.9311 33.2606 23.4595ZM34.739 23.4595C34.739 24.6894 33.7503 25.6788 32.4751 25.6788H31.5049V27.4954C31.5049 27.6157 31.4075 27.7132 31.2874 27.7132H30.2443C30.1239 27.7132 30.0265 27.6157 30.0265 27.4954V21.458C30.0265 21.3376 30.1239 21.2401 30.2443 21.2401H32.4751C33.7503 21.2401 34.739 22.2296 34.739 23.4595Z" fill="white"/>
<path d="M38.8426 25.4015C38.8426 24.708 38.3806 24.2733 37.743 24.2733C37.1055 24.2733 36.6435 24.708 36.6435 25.4015C36.6435 26.095 37.1055 26.5296 37.743 26.5296C38.3806 26.5296 38.8426 26.0951 38.8426 25.4015ZM40.2286 23.2043V27.5986C40.2286 27.662 40.1774 27.7133 40.1141 27.7133H38.9572C38.894 27.7133 38.8426 27.662 38.8426 27.5986V27.2788C38.5377 27.63 38.0849 27.8428 37.4659 27.8428C36.2553 27.8428 35.2575 26.7794 35.2575 25.4015C35.2575 24.0236 36.2553 22.9602 37.4659 22.9602C38.0849 22.9602 38.5377 23.1729 38.8426 23.5243V23.2043C38.8426 23.1409 38.894 23.0897 38.9572 23.0897H40.1141C40.1774 23.0897 40.2286 23.1409 40.2286 23.2043Z" fill="white"/>
<path d="M44.841 23.2102L43.7773 25.8917L42.6775 23.2081C42.6631 23.1731 42.6386 23.1431 42.6071 23.122C42.5757 23.1009 42.5387 23.0897 42.5008 23.0897H41.3212C41.2398 23.0897 41.1843 23.1723 41.2153 23.2478L43.0503 27.7247L42.3815 29.4106C42.3517 29.4859 42.4071 29.5676 42.4879 29.5676H43.6681C43.7064 29.5676 43.7437 29.5561 43.7753 29.5346C43.807 29.5131 43.8314 29.4826 43.8455 29.447L46.305 23.2465C46.3348 23.1713 46.2794 23.0897 46.1986 23.0897H45.0185C44.9803 23.0897 44.9429 23.1012 44.9112 23.1226C44.8796 23.1441 44.8551 23.1746 44.841 23.2102Z" fill="white"/>
</g>
<defs>
<clipPath id="clip0_2703_11085">
<rect width="48" height="48" fill="white"/>
</clipPath>
</defs>
</svg>
