<svg width="48" height="48" viewBox="0 0 48 48" fill="none" xmlns="http://www.w3.org/2000/svg">
<g clip-path="url(#clip0_2703_11091)">
<path d="M40 15.07H8V33.47H40V15.07Z" fill="#F6F6F6"/>
<path fill-rule="evenodd" clip-rule="evenodd" d="M37.6 13C36 13 19.0602 13 9.6 13C8.8 13 8 13.92 8 14.84V17.6H40C40 17.6 40 21.8715 40 15.76C40 13.92 39.2 13 37.6 13Z" fill="#265697"/>
<path fill-rule="evenodd" clip-rule="evenodd" d="M8 31.4C8 31.4 8 31.4 8 33.24C8 35.08 8.8 36 10.4 36C19.3246 36 36 36 37.6 36C39.2 36 40 35.08 40 33.24V31.4H8Z" fill="#D97B16"/>
<path fill-rule="evenodd" clip-rule="evenodd" d="M30.3238 19.8499C29.8753 19.6522 29.1726 19.44 28.295 19.44C26.0582 19.44 24.4826 20.7637 24.4692 22.6607C24.4566 24.0629 25.594 24.8452 26.4527 25.312C27.3338 25.7904 27.63 26.0955 27.6258 26.5226C27.6202 27.1768 26.9221 27.4756 26.2715 27.4756C25.3655 27.4756 24.8841 27.3277 24.1407 26.9633L23.849 26.8083L23.5312 28.9929C24.0599 29.2653 25.0377 29.5014 26.0529 29.5136C28.4324 29.5136 29.9771 28.2051 29.9947 26.1794C30.0032 25.0692 29.4001 24.2243 28.0941 23.5278C27.3029 23.0764 26.8183 22.7751 26.8235 22.318C26.8235 21.9123 27.2336 21.4786 28.1198 21.4786C28.8601 21.465 29.3963 21.6547 29.8141 21.8525L30.0169 21.9651L30.3238 19.8499Z" fill="#265697"/>
<path fill-rule="evenodd" clip-rule="evenodd" d="M36.1285 19.6189H34.3793C33.8375 19.6189 33.4319 19.7927 33.194 20.4282L29.832 29.3718H32.2091C32.2091 29.3718 32.5978 28.1693 32.6857 27.9053C32.9454 27.9053 35.2547 27.9095 35.5848 27.9095C35.6525 28.2511 35.8602 29.3718 35.8602 29.3718H37.9607L36.1285 19.6189ZM33.3371 25.9091C33.5243 25.3469 34.239 23.181 34.239 23.181C34.2257 23.207 34.4248 22.616 34.5392 22.2496L34.6922 23.091C34.6922 23.091 35.1256 25.4205 35.2162 25.909L33.3371 25.9091Z" fill="#265697"/>
<path fill-rule="evenodd" clip-rule="evenodd" d="M19.8496 29.3688L21.2649 19.6096H23.5286L22.1123 29.3688H19.8496Z" fill="#265697"/>
<path fill-rule="evenodd" clip-rule="evenodd" d="M17.9508 19.6167L15.7345 26.2717L15.4984 24.9193C15.0858 23.3603 13.8004 21.6711 12.3633 20.8255L14.3898 29.3603L16.7848 29.3571L20.3486 19.6167H17.9508Z" fill="#265697"/>
<path fill-rule="evenodd" clip-rule="evenodd" d="M13.6791 19.6107H10.0289L10 19.8138C12.8398 20.6216 14.7189 22.5737 15.4989 24.9193L14.7052 20.4346C14.5682 19.8167 14.1708 19.6323 13.6791 19.6107Z" fill="#D97B16"/>
</g>
<defs>
<clipPath id="clip0_2703_11091">
<rect width="32" height="23" fill="white" transform="translate(8 13)"/>
</clipPath>
</defs>
</svg>
