<svg width="48" height="48" viewBox="0 0 48 48" fill="none" xmlns="http://www.w3.org/2000/svg">
<path d="M13.399 19.0808C12.9878 19.5723 12.3315 19.9587 11.6753 19.9033C11.5936 19.2398 11.9144 18.5354 12.2907 18.0994C12.7019 17.5948 13.4194 17.2375 13.9998 17.2083C14.0684 17.8996 13.8015 18.5762 13.399 19.0808ZM13.9926 20.0346C13.0432 19.9791 12.228 20.5814 11.7788 20.5814C11.3194 20.5814 10.6296 20.0623 9.87714 20.0769C8.90005 20.0914 7.99151 20.65 7.49276 21.5425C6.4661 23.3246 7.22589 25.9656 8.21609 27.4166C8.70172 28.1356 9.28359 28.9231 10.0492 28.8954C10.7726 28.8677 11.0598 28.4185 11.9348 28.4185C12.8171 28.4185 13.0694 28.8954 13.8365 28.8823C14.6284 28.8677 15.1271 28.1633 15.6128 27.4444C16.1669 26.6277 16.393 25.8344 16.4061 25.7921C16.3915 25.7775 14.8748 25.1912 14.8603 23.4223C14.8471 21.9421 16.0561 21.2377 16.1115 21.1969C15.429 20.1731 14.3615 20.0623 13.9926 20.0346ZM19.4832 18.0308V28.8064H21.1384V25.1227H23.428C25.5192 25.1227 26.9892 23.6702 26.9892 21.5702C26.9892 19.4687 25.5469 18.0308 23.4834 18.0308H19.4817H19.4832ZM21.1384 19.441H23.0459C24.4809 19.441 25.3005 20.2139 25.3005 21.576C25.3005 22.9381 24.4809 23.7198 23.0386 23.7198H21.1369V19.4396L21.1384 19.441ZM30.0109 28.8881C31.0507 28.8881 32.0146 28.3573 32.4521 27.5129H32.4857V28.8064H34.0169V23.4427C34.0169 21.8881 32.7861 20.8848 30.8932 20.8848C29.1359 20.8848 27.838 21.9012 27.7898 23.2969H29.2803C29.4028 22.6333 30.0109 22.1987 30.8451 22.1987C31.8571 22.1987 32.4244 22.6756 32.4244 23.5535V24.1471L30.3594 24.2725C28.4388 24.3891 27.399 25.1839 27.399 26.5664C27.399 27.9621 28.4723 28.8881 30.0109 28.8881ZM30.4557 27.6106C29.5734 27.6106 29.0119 27.1819 29.0119 26.5256C29.0119 25.8475 29.553 25.4537 30.5855 25.391L32.423 25.2744V25.8825C32.423 26.8916 31.5786 27.6106 30.4557 27.6106ZM36.0615 31.7377C37.6744 31.7377 38.4328 31.115 39.0948 29.2279L41.9998 20.9883H40.3184L38.3701 27.3539H38.3365L36.3882 20.9883H34.6586L37.4601 28.8341L37.3098 29.311C37.0576 30.1189 36.6478 30.4296 35.9157 30.4296C35.7859 30.4296 35.5336 30.415 35.4301 30.4019V31.6954C35.5263 31.7231 35.9361 31.7362 36.0601 31.7362L36.0615 31.7377Z" fill="#3A2C19"/>
</svg>
